<?xml version="1.0" encoding="utf-8" standalone="no"?>
<!DOCTYPE svg PUBLIC "-//W3C//DTD SVG 1.1//EN"
  "http://www.w3.org/Graphics/SVG/1.1/DTD/svg11.dtd">
<svg xmlns:xlink="http://www.w3.org/1999/xlink" width="491.770041pt" height="96.492589pt" viewBox="0 0 491.770041 96.492589" xmlns="http://www.w3.org/2000/svg" version="1.1">
 <metadata>
  <rdf:RDF xmlns:dc="http://purl.org/dc/elements/1.1/" xmlns:cc="http://creativecommons.org/ns#" xmlns:rdf="http://www.w3.org/1999/02/22-rdf-syntax-ns#">
   <cc:Work>
    <dc:type rdf:resource="http://purl.org/dc/dcmitype/StillImage"/>
    <dc:date>2025-07-19T15:48:00.168769</dc:date>
    <dc:format>image/svg+xml</dc:format>
    <dc:creator>
     <cc:Agent>
      <dc:title>Matplotlib v3.10.3, https://matplotlib.org/</dc:title>
     </cc:Agent>
    </dc:creator>
   </cc:Work>
  </rdf:RDF>
 </metadata>
 <defs>
  <style type="text/css">*{stroke-linejoin: round; stroke-linecap: butt}</style>
 </defs>
 <g id="figure_1">
  <g id="patch_1">
   <path d="M 0 96.492589 
L 491.770041 96.492589 
L 491.770041 0 
L 0 0 
z
" style="fill: #ffffff"/>
  </g>
  <g id="axes_1">
   <g id="patch_2">
    <path d="M 7.2 71.28 
L 484.570041 71.28 
L 484.570041 7.2 
L 7.2 7.2 
z
" style="fill: #ffffff"/>
   </g>
   <g id="matplotlib.axis_1"/>
   <g id="matplotlib.axis_2"/>
   <g id="line2d_1">
    <path d="M 7.2 71.28 
L 484.570041 71.28 
" clip-path="url(#paf3941889b)" style="fill: none; stroke: #d3d3d3; stroke-width: 3; stroke-linecap: square"/>
   </g>
   <g id="patch_3">
    <path d="M 28.898638 71.28 
L 68.350708 71.28 
L 68.350708 45.187497 
L 28.898638 45.187497 
z
" clip-path="url(#paf3941889b)" style="fill: #fad36c"/>
   </g>
   <g id="patch_4">
    <path d="M 127.528812 71.28 
L 166.980882 71.28 
L 166.980882 10.251429 
L 127.528812 10.251429 
z
" clip-path="url(#paf3941889b)" style="fill: #f2b154"/>
   </g>
   <g id="patch_5">
    <path d="M 226.158986 71.28 
L 265.611055 71.28 
L 265.611055 35.427706 
L 226.158986 35.427706 
z
" clip-path="url(#paf3941889b)" style="fill: #ec8f43"/>
   </g>
   <g id="patch_6">
    <path d="M 324.78916 71.28 
L 364.241229 71.28 
L 364.241229 22.401373 
L 324.78916 22.401373 
z
" clip-path="url(#paf3941889b)" style="fill: #e66c33"/>
   </g>
   <g id="patch_7">
    <path d="M 423.419334 71.28 
L 462.871403 71.28 
L 462.871403 46.382574 
L 423.419334 46.382574 
z
" clip-path="url(#paf3941889b)" style="fill: #d35028"/>
   </g>
   <g id="text_1">
    <!-- Patrimonio -->
    <g style="fill: #808080" transform="translate(30.125923 80.111062) scale(0.06 -0.06)">
     <defs>
      <path id="DejaVuSans-Bold-50" d="M 588 4666 
L 2584 4666 
Q 3475 4666 3951 4270 
Q 4428 3875 4428 3144 
Q 4428 2409 3951 2014 
Q 3475 1619 2584 1619 
L 1791 1619 
L 1791 0 
L 588 0 
L 588 4666 
z
M 1791 3794 
L 1791 2491 
L 2456 2491 
Q 2806 2491 2997 2661 
Q 3188 2831 3188 3144 
Q 3188 3456 2997 3625 
Q 2806 3794 2456 3794 
L 1791 3794 
z
" transform="scale(0.015625)"/>
      <path id="DejaVuSans-Bold-61" d="M 2106 1575 
Q 1756 1575 1579 1456 
Q 1403 1338 1403 1106 
Q 1403 894 1545 773 
Q 1688 653 1941 653 
Q 2256 653 2472 879 
Q 2688 1106 2688 1447 
L 2688 1575 
L 2106 1575 
z
M 3816 1997 
L 3816 0 
L 2688 0 
L 2688 519 
Q 2463 200 2181 54 
Q 1900 -91 1497 -91 
Q 953 -91 614 226 
Q 275 544 275 1050 
Q 275 1666 698 1953 
Q 1122 2241 2028 2241 
L 2688 2241 
L 2688 2328 
Q 2688 2594 2478 2717 
Q 2269 2841 1825 2841 
Q 1466 2841 1156 2769 
Q 847 2697 581 2553 
L 581 3406 
Q 941 3494 1303 3539 
Q 1666 3584 2028 3584 
Q 2975 3584 3395 3211 
Q 3816 2838 3816 1997 
z
" transform="scale(0.015625)"/>
      <path id="DejaVuSans-Bold-74" d="M 1759 4494 
L 1759 3500 
L 2913 3500 
L 2913 2700 
L 1759 2700 
L 1759 1216 
Q 1759 972 1856 886 
Q 1953 800 2241 800 
L 2816 800 
L 2816 0 
L 1856 0 
Q 1194 0 917 276 
Q 641 553 641 1216 
L 641 2700 
L 84 2700 
L 84 3500 
L 641 3500 
L 641 4494 
L 1759 4494 
z
" transform="scale(0.015625)"/>
      <path id="DejaVuSans-Bold-72" d="M 3138 2547 
Q 2991 2616 2845 2648 
Q 2700 2681 2553 2681 
Q 2122 2681 1889 2404 
Q 1656 2128 1656 1613 
L 1656 0 
L 538 0 
L 538 3500 
L 1656 3500 
L 1656 2925 
Q 1872 3269 2151 3426 
Q 2431 3584 2822 3584 
Q 2878 3584 2943 3579 
Q 3009 3575 3134 3559 
L 3138 2547 
z
" transform="scale(0.015625)"/>
      <path id="DejaVuSans-Bold-69" d="M 538 3500 
L 1656 3500 
L 1656 0 
L 538 0 
L 538 3500 
z
M 538 4863 
L 1656 4863 
L 1656 3950 
L 538 3950 
L 538 4863 
z
" transform="scale(0.015625)"/>
      <path id="DejaVuSans-Bold-6d" d="M 3781 2919 
Q 3994 3244 4286 3414 
Q 4578 3584 4928 3584 
Q 5531 3584 5847 3212 
Q 6163 2841 6163 2131 
L 6163 0 
L 5038 0 
L 5038 1825 
Q 5041 1866 5042 1909 
Q 5044 1953 5044 2034 
Q 5044 2406 4934 2573 
Q 4825 2741 4581 2741 
Q 4263 2741 4089 2478 
Q 3916 2216 3909 1719 
L 3909 0 
L 2784 0 
L 2784 1825 
Q 2784 2406 2684 2573 
Q 2584 2741 2328 2741 
Q 2006 2741 1831 2477 
Q 1656 2213 1656 1722 
L 1656 0 
L 531 0 
L 531 3500 
L 1656 3500 
L 1656 2988 
Q 1863 3284 2130 3434 
Q 2397 3584 2719 3584 
Q 3081 3584 3359 3409 
Q 3638 3234 3781 2919 
z
" transform="scale(0.015625)"/>
      <path id="DejaVuSans-Bold-6f" d="M 2203 2784 
Q 1831 2784 1636 2517 
Q 1441 2250 1441 1747 
Q 1441 1244 1636 976 
Q 1831 709 2203 709 
Q 2569 709 2762 976 
Q 2956 1244 2956 1747 
Q 2956 2250 2762 2517 
Q 2569 2784 2203 2784 
z
M 2203 3584 
Q 3106 3584 3614 3096 
Q 4122 2609 4122 1747 
Q 4122 884 3614 396 
Q 3106 -91 2203 -91 
Q 1297 -91 786 396 
Q 275 884 275 1747 
Q 275 2609 786 3096 
Q 1297 3584 2203 3584 
z
" transform="scale(0.015625)"/>
      <path id="DejaVuSans-Bold-6e" d="M 4056 2131 
L 4056 0 
L 2931 0 
L 2931 347 
L 2931 1631 
Q 2931 2084 2911 2256 
Q 2891 2428 2841 2509 
Q 2775 2619 2662 2680 
Q 2550 2741 2406 2741 
Q 2056 2741 1856 2470 
Q 1656 2200 1656 1722 
L 1656 0 
L 538 0 
L 538 3500 
L 1656 3500 
L 1656 2988 
Q 1909 3294 2193 3439 
Q 2478 3584 2822 3584 
Q 3428 3584 3742 3212 
Q 4056 2841 4056 2131 
z
" transform="scale(0.015625)"/>
     </defs>
     <use xlink:href="#DejaVuSans-Bold-50"/>
     <use xlink:href="#DejaVuSans-Bold-61" transform="translate(70.666016 0)"/>
     <use xlink:href="#DejaVuSans-Bold-74" transform="translate(138.146484 0)"/>
     <use xlink:href="#DejaVuSans-Bold-72" transform="translate(185.949219 0)"/>
     <use xlink:href="#DejaVuSans-Bold-69" transform="translate(235.265625 0)"/>
     <use xlink:href="#DejaVuSans-Bold-6d" transform="translate(269.542969 0)"/>
     <use xlink:href="#DejaVuSans-Bold-6f" transform="translate(373.742188 0)"/>
     <use xlink:href="#DejaVuSans-Bold-6e" transform="translate(442.443359 0)"/>
     <use xlink:href="#DejaVuSans-Bold-69" transform="translate(513.634766 0)"/>
     <use xlink:href="#DejaVuSans-Bold-6f" transform="translate(547.912109 0)"/>
    </g>
   </g>
   <g id="text_2">
    <!-- $1,310,000 -->
    <g style="fill: #808080" transform="translate(31.447798 88.044777) scale(0.06 -0.06)">
     <defs>
      <path id="DejaVuSans-24" d="M 2163 -941 
L 1850 -941 
L 1847 0 
Q 1519 6 1191 76 
Q 863 147 531 288 
L 531 850 
Q 850 650 1176 548 
Q 1503 447 1850 444 
L 1850 1869 
Q 1159 1981 845 2250 
Q 531 2519 531 2988 
Q 531 3497 872 3790 
Q 1213 4084 1850 4128 
L 1850 4863 
L 2163 4863 
L 2163 4138 
Q 2453 4125 2725 4076 
Q 2997 4028 3256 3944 
L 3256 3397 
Q 2997 3528 2723 3600 
Q 2450 3672 2163 3684 
L 2163 2350 
Q 2872 2241 3206 1959 
Q 3541 1678 3541 1191 
Q 3541 663 3186 358 
Q 2831 53 2163 6 
L 2163 -941 
z
M 1850 2406 
L 1850 3688 
Q 1488 3647 1297 3481 
Q 1106 3316 1106 3041 
Q 1106 2772 1282 2622 
Q 1459 2472 1850 2406 
z
M 2163 1806 
L 2163 453 
Q 2559 506 2761 678 
Q 2963 850 2963 1131 
Q 2963 1406 2770 1568 
Q 2578 1731 2163 1806 
z
" transform="scale(0.015625)"/>
      <path id="DejaVuSans-31" d="M 794 531 
L 1825 531 
L 1825 4091 
L 703 3866 
L 703 4441 
L 1819 4666 
L 2450 4666 
L 2450 531 
L 3481 531 
L 3481 0 
L 794 0 
L 794 531 
z
" transform="scale(0.015625)"/>
      <path id="DejaVuSans-2c" d="M 750 794 
L 1409 794 
L 1409 256 
L 897 -744 
L 494 -744 
L 750 256 
L 750 794 
z
" transform="scale(0.015625)"/>
      <path id="DejaVuSans-33" d="M 2597 2516 
Q 3050 2419 3304 2112 
Q 3559 1806 3559 1356 
Q 3559 666 3084 287 
Q 2609 -91 1734 -91 
Q 1441 -91 1130 -33 
Q 819 25 488 141 
L 488 750 
Q 750 597 1062 519 
Q 1375 441 1716 441 
Q 2309 441 2620 675 
Q 2931 909 2931 1356 
Q 2931 1769 2642 2001 
Q 2353 2234 1838 2234 
L 1294 2234 
L 1294 2753 
L 1863 2753 
Q 2328 2753 2575 2939 
Q 2822 3125 2822 3475 
Q 2822 3834 2567 4026 
Q 2313 4219 1838 4219 
Q 1578 4219 1281 4162 
Q 984 4106 628 3988 
L 628 4550 
Q 988 4650 1302 4700 
Q 1616 4750 1894 4750 
Q 2613 4750 3031 4423 
Q 3450 4097 3450 3541 
Q 3450 3153 3228 2886 
Q 3006 2619 2597 2516 
z
" transform="scale(0.015625)"/>
      <path id="DejaVuSans-30" d="M 2034 4250 
Q 1547 4250 1301 3770 
Q 1056 3291 1056 2328 
Q 1056 1369 1301 889 
Q 1547 409 2034 409 
Q 2525 409 2770 889 
Q 3016 1369 3016 2328 
Q 3016 3291 2770 3770 
Q 2525 4250 2034 4250 
z
M 2034 4750 
Q 2819 4750 3233 4129 
Q 3647 3509 3647 2328 
Q 3647 1150 3233 529 
Q 2819 -91 2034 -91 
Q 1250 -91 836 529 
Q 422 1150 422 2328 
Q 422 3509 836 4129 
Q 1250 4750 2034 4750 
z
" transform="scale(0.015625)"/>
     </defs>
     <use xlink:href="#DejaVuSans-24"/>
     <use xlink:href="#DejaVuSans-31" transform="translate(63.623047 0)"/>
     <use xlink:href="#DejaVuSans-2c" transform="translate(127.246094 0)"/>
     <use xlink:href="#DejaVuSans-33" transform="translate(159.033203 0)"/>
     <use xlink:href="#DejaVuSans-31" transform="translate(222.65625 0)"/>
     <use xlink:href="#DejaVuSans-30" transform="translate(286.279297 0)"/>
     <use xlink:href="#DejaVuSans-2c" transform="translate(349.902344 0)"/>
     <use xlink:href="#DejaVuSans-30" transform="translate(381.689453 0)"/>
     <use xlink:href="#DejaVuSans-30" transform="translate(445.3125 0)"/>
     <use xlink:href="#DejaVuSans-30" transform="translate(508.935547 0)"/>
    </g>
   </g>
   <g id="text_3">
    <!-- Activos Corrientes -->
    <g style="fill: #808080" transform="translate(116.171097 80.111062) scale(0.06 -0.06)">
     <defs>
      <path id="DejaVuSans-Bold-41" d="M 3419 850 
L 1538 850 
L 1241 0 
L 31 0 
L 1759 4666 
L 3194 4666 
L 4922 0 
L 3713 0 
L 3419 850 
z
M 1838 1716 
L 3116 1716 
L 2478 3572 
L 1838 1716 
z
" transform="scale(0.015625)"/>
      <path id="DejaVuSans-Bold-63" d="M 3366 3391 
L 3366 2478 
Q 3138 2634 2908 2709 
Q 2678 2784 2431 2784 
Q 1963 2784 1702 2511 
Q 1441 2238 1441 1747 
Q 1441 1256 1702 982 
Q 1963 709 2431 709 
Q 2694 709 2930 787 
Q 3166 866 3366 1019 
L 3366 103 
Q 3103 6 2833 -42 
Q 2563 -91 2291 -91 
Q 1344 -91 809 395 
Q 275 881 275 1747 
Q 275 2613 809 3098 
Q 1344 3584 2291 3584 
Q 2566 3584 2833 3536 
Q 3100 3488 3366 3391 
z
" transform="scale(0.015625)"/>
      <path id="DejaVuSans-Bold-76" d="M 97 3500 
L 1216 3500 
L 2088 1081 
L 2956 3500 
L 4078 3500 
L 2700 0 
L 1472 0 
L 97 3500 
z
" transform="scale(0.015625)"/>
      <path id="DejaVuSans-Bold-73" d="M 3272 3391 
L 3272 2541 
Q 2913 2691 2578 2766 
Q 2244 2841 1947 2841 
Q 1628 2841 1473 2761 
Q 1319 2681 1319 2516 
Q 1319 2381 1436 2309 
Q 1553 2238 1856 2203 
L 2053 2175 
Q 2913 2066 3209 1816 
Q 3506 1566 3506 1031 
Q 3506 472 3093 190 
Q 2681 -91 1863 -91 
Q 1516 -91 1145 -36 
Q 775 19 384 128 
L 384 978 
Q 719 816 1070 734 
Q 1422 653 1784 653 
Q 2113 653 2278 743 
Q 2444 834 2444 1013 
Q 2444 1163 2330 1236 
Q 2216 1309 1875 1350 
L 1678 1375 
Q 931 1469 631 1722 
Q 331 1975 331 2491 
Q 331 3047 712 3315 
Q 1094 3584 1881 3584 
Q 2191 3584 2531 3537 
Q 2872 3491 3272 3391 
z
" transform="scale(0.015625)"/>
      <path id="DejaVuSans-Bold-20" transform="scale(0.015625)"/>
      <path id="DejaVuSans-Bold-43" d="M 4288 256 
Q 3956 84 3597 -3 
Q 3238 -91 2847 -91 
Q 1681 -91 1000 561 
Q 319 1213 319 2328 
Q 319 3447 1000 4098 
Q 1681 4750 2847 4750 
Q 3238 4750 3597 4662 
Q 3956 4575 4288 4403 
L 4288 3438 
Q 3953 3666 3628 3772 
Q 3303 3878 2944 3878 
Q 2300 3878 1931 3465 
Q 1563 3053 1563 2328 
Q 1563 1606 1931 1193 
Q 2300 781 2944 781 
Q 3303 781 3628 887 
Q 3953 994 4288 1222 
L 4288 256 
z
" transform="scale(0.015625)"/>
      <path id="DejaVuSans-Bold-65" d="M 4031 1759 
L 4031 1441 
L 1416 1441 
Q 1456 1047 1700 850 
Q 1944 653 2381 653 
Q 2734 653 3104 758 
Q 3475 863 3866 1075 
L 3866 213 
Q 3469 63 3072 -14 
Q 2675 -91 2278 -91 
Q 1328 -91 801 392 
Q 275 875 275 1747 
Q 275 2603 792 3093 
Q 1309 3584 2216 3584 
Q 3041 3584 3536 3087 
Q 4031 2591 4031 1759 
z
M 2881 2131 
Q 2881 2450 2695 2645 
Q 2509 2841 2209 2841 
Q 1884 2841 1681 2658 
Q 1478 2475 1428 2131 
L 2881 2131 
z
" transform="scale(0.015625)"/>
     </defs>
     <use xlink:href="#DejaVuSans-Bold-41"/>
     <use xlink:href="#DejaVuSans-Bold-63" transform="translate(77.392578 0)"/>
     <use xlink:href="#DejaVuSans-Bold-74" transform="translate(136.669922 0)"/>
     <use xlink:href="#DejaVuSans-Bold-69" transform="translate(184.472656 0)"/>
     <use xlink:href="#DejaVuSans-Bold-76" transform="translate(218.75 0)"/>
     <use xlink:href="#DejaVuSans-Bold-6f" transform="translate(283.935547 0)"/>
     <use xlink:href="#DejaVuSans-Bold-73" transform="translate(352.636719 0)"/>
     <use xlink:href="#DejaVuSans-Bold-20" transform="translate(412.158203 0)"/>
     <use xlink:href="#DejaVuSans-Bold-43" transform="translate(446.972656 0)"/>
     <use xlink:href="#DejaVuSans-Bold-6f" transform="translate(520.361328 0)"/>
     <use xlink:href="#DejaVuSans-Bold-72" transform="translate(589.0625 0)"/>
     <use xlink:href="#DejaVuSans-Bold-72" transform="translate(638.378906 0)"/>
     <use xlink:href="#DejaVuSans-Bold-69" transform="translate(687.695312 0)"/>
     <use xlink:href="#DejaVuSans-Bold-65" transform="translate(721.972656 0)"/>
     <use xlink:href="#DejaVuSans-Bold-6e" transform="translate(789.794922 0)"/>
     <use xlink:href="#DejaVuSans-Bold-74" transform="translate(860.986328 0)"/>
     <use xlink:href="#DejaVuSans-Bold-65" transform="translate(908.789062 0)"/>
     <use xlink:href="#DejaVuSans-Bold-73" transform="translate(976.611328 0)"/>
    </g>
   </g>
   <g id="text_4">
    <!-- $3,064,000 -->
    <g style="fill: #808080" transform="translate(130.077972 88.044777) scale(0.06 -0.06)">
     <defs>
      <path id="DejaVuSans-36" d="M 2113 2584 
Q 1688 2584 1439 2293 
Q 1191 2003 1191 1497 
Q 1191 994 1439 701 
Q 1688 409 2113 409 
Q 2538 409 2786 701 
Q 3034 994 3034 1497 
Q 3034 2003 2786 2293 
Q 2538 2584 2113 2584 
z
M 3366 4563 
L 3366 3988 
Q 3128 4100 2886 4159 
Q 2644 4219 2406 4219 
Q 1781 4219 1451 3797 
Q 1122 3375 1075 2522 
Q 1259 2794 1537 2939 
Q 1816 3084 2150 3084 
Q 2853 3084 3261 2657 
Q 3669 2231 3669 1497 
Q 3669 778 3244 343 
Q 2819 -91 2113 -91 
Q 1303 -91 875 529 
Q 447 1150 447 2328 
Q 447 3434 972 4092 
Q 1497 4750 2381 4750 
Q 2619 4750 2861 4703 
Q 3103 4656 3366 4563 
z
" transform="scale(0.015625)"/>
      <path id="DejaVuSans-34" d="M 2419 4116 
L 825 1625 
L 2419 1625 
L 2419 4116 
z
M 2253 4666 
L 3047 4666 
L 3047 1625 
L 3713 1625 
L 3713 1100 
L 3047 1100 
L 3047 0 
L 2419 0 
L 2419 1100 
L 313 1100 
L 313 1709 
L 2253 4666 
z
" transform="scale(0.015625)"/>
     </defs>
     <use xlink:href="#DejaVuSans-24"/>
     <use xlink:href="#DejaVuSans-33" transform="translate(63.623047 0)"/>
     <use xlink:href="#DejaVuSans-2c" transform="translate(127.246094 0)"/>
     <use xlink:href="#DejaVuSans-30" transform="translate(159.033203 0)"/>
     <use xlink:href="#DejaVuSans-36" transform="translate(222.65625 0)"/>
     <use xlink:href="#DejaVuSans-34" transform="translate(286.279297 0)"/>
     <use xlink:href="#DejaVuSans-2c" transform="translate(349.902344 0)"/>
     <use xlink:href="#DejaVuSans-30" transform="translate(381.689453 0)"/>
     <use xlink:href="#DejaVuSans-30" transform="translate(445.3125 0)"/>
     <use xlink:href="#DejaVuSans-30" transform="translate(508.935547 0)"/>
    </g>
   </g>
   <g id="text_5">
    <!-- Activos Fijos -->
    <g style="fill: #808080" transform="translate(224.523146 80.111062) scale(0.06 -0.06)">
     <defs>
      <path id="DejaVuSans-Bold-46" d="M 588 4666 
L 3834 4666 
L 3834 3756 
L 1791 3756 
L 1791 2888 
L 3713 2888 
L 3713 1978 
L 1791 1978 
L 1791 0 
L 588 0 
L 588 4666 
z
" transform="scale(0.015625)"/>
      <path id="DejaVuSans-Bold-6a" d="M 538 3500 
L 1656 3500 
L 1656 63 
Q 1656 -641 1318 -1011 
Q 981 -1381 341 -1381 
L -213 -1381 
L -213 -647 
L -19 -647 
Q 300 -647 419 -503 
Q 538 -359 538 63 
L 538 3500 
z
M 538 4863 
L 1656 4863 
L 1656 3950 
L 538 3950 
L 538 4863 
z
" transform="scale(0.015625)"/>
     </defs>
     <use xlink:href="#DejaVuSans-Bold-41"/>
     <use xlink:href="#DejaVuSans-Bold-63" transform="translate(77.392578 0)"/>
     <use xlink:href="#DejaVuSans-Bold-74" transform="translate(136.669922 0)"/>
     <use xlink:href="#DejaVuSans-Bold-69" transform="translate(184.472656 0)"/>
     <use xlink:href="#DejaVuSans-Bold-76" transform="translate(218.75 0)"/>
     <use xlink:href="#DejaVuSans-Bold-6f" transform="translate(283.935547 0)"/>
     <use xlink:href="#DejaVuSans-Bold-73" transform="translate(352.636719 0)"/>
     <use xlink:href="#DejaVuSans-Bold-20" transform="translate(412.158203 0)"/>
     <use xlink:href="#DejaVuSans-Bold-46" transform="translate(446.972656 0)"/>
     <use xlink:href="#DejaVuSans-Bold-69" transform="translate(515.283203 0)"/>
     <use xlink:href="#DejaVuSans-Bold-6a" transform="translate(549.560547 0)"/>
     <use xlink:href="#DejaVuSans-Bold-6f" transform="translate(583.837891 0)"/>
     <use xlink:href="#DejaVuSans-Bold-73" transform="translate(652.539062 0)"/>
    </g>
   </g>
   <g id="text_6">
    <!-- $1,800,000 -->
    <g style="fill: #808080" transform="translate(228.708146 88.044777) scale(0.06 -0.06)">
     <defs>
      <path id="DejaVuSans-38" d="M 2034 2216 
Q 1584 2216 1326 1975 
Q 1069 1734 1069 1313 
Q 1069 891 1326 650 
Q 1584 409 2034 409 
Q 2484 409 2743 651 
Q 3003 894 3003 1313 
Q 3003 1734 2745 1975 
Q 2488 2216 2034 2216 
z
M 1403 2484 
Q 997 2584 770 2862 
Q 544 3141 544 3541 
Q 544 4100 942 4425 
Q 1341 4750 2034 4750 
Q 2731 4750 3128 4425 
Q 3525 4100 3525 3541 
Q 3525 3141 3298 2862 
Q 3072 2584 2669 2484 
Q 3125 2378 3379 2068 
Q 3634 1759 3634 1313 
Q 3634 634 3220 271 
Q 2806 -91 2034 -91 
Q 1263 -91 848 271 
Q 434 634 434 1313 
Q 434 1759 690 2068 
Q 947 2378 1403 2484 
z
M 1172 3481 
Q 1172 3119 1398 2916 
Q 1625 2713 2034 2713 
Q 2441 2713 2670 2916 
Q 2900 3119 2900 3481 
Q 2900 3844 2670 4047 
Q 2441 4250 2034 4250 
Q 1625 4250 1398 4047 
Q 1172 3844 1172 3481 
z
" transform="scale(0.015625)"/>
     </defs>
     <use xlink:href="#DejaVuSans-24"/>
     <use xlink:href="#DejaVuSans-31" transform="translate(63.623047 0)"/>
     <use xlink:href="#DejaVuSans-2c" transform="translate(127.246094 0)"/>
     <use xlink:href="#DejaVuSans-38" transform="translate(159.033203 0)"/>
     <use xlink:href="#DejaVuSans-30" transform="translate(222.65625 0)"/>
     <use xlink:href="#DejaVuSans-30" transform="translate(286.279297 0)"/>
     <use xlink:href="#DejaVuSans-2c" transform="translate(349.902344 0)"/>
     <use xlink:href="#DejaVuSans-30" transform="translate(381.689453 0)"/>
     <use xlink:href="#DejaVuSans-30" transform="translate(445.3125 0)"/>
     <use xlink:href="#DejaVuSans-30" transform="translate(508.935547 0)"/>
    </g>
   </g>
   <g id="text_7">
    <!-- Pasivos de Corto Plazo -->
    <g style="fill: #808080" transform="translate(306.142851 80.111062) scale(0.06 -0.06)">
     <defs>
      <path id="DejaVuSans-Bold-64" d="M 2919 2988 
L 2919 4863 
L 4044 4863 
L 4044 0 
L 2919 0 
L 2919 506 
Q 2688 197 2409 53 
Q 2131 -91 1766 -91 
Q 1119 -91 703 423 
Q 288 938 288 1747 
Q 288 2556 703 3070 
Q 1119 3584 1766 3584 
Q 2128 3584 2408 3439 
Q 2688 3294 2919 2988 
z
M 2181 722 
Q 2541 722 2730 984 
Q 2919 1247 2919 1747 
Q 2919 2247 2730 2509 
Q 2541 2772 2181 2772 
Q 1825 2772 1636 2509 
Q 1447 2247 1447 1747 
Q 1447 1247 1636 984 
Q 1825 722 2181 722 
z
" transform="scale(0.015625)"/>
      <path id="DejaVuSans-Bold-6c" d="M 538 4863 
L 1656 4863 
L 1656 0 
L 538 0 
L 538 4863 
z
" transform="scale(0.015625)"/>
      <path id="DejaVuSans-Bold-7a" d="M 366 3500 
L 3419 3500 
L 3419 2719 
L 1575 800 
L 3419 800 
L 3419 0 
L 288 0 
L 288 781 
L 2131 2700 
L 366 2700 
L 366 3500 
z
" transform="scale(0.015625)"/>
     </defs>
     <use xlink:href="#DejaVuSans-Bold-50"/>
     <use xlink:href="#DejaVuSans-Bold-61" transform="translate(70.666016 0)"/>
     <use xlink:href="#DejaVuSans-Bold-73" transform="translate(138.146484 0)"/>
     <use xlink:href="#DejaVuSans-Bold-69" transform="translate(197.667969 0)"/>
     <use xlink:href="#DejaVuSans-Bold-76" transform="translate(231.945312 0)"/>
     <use xlink:href="#DejaVuSans-Bold-6f" transform="translate(297.130859 0)"/>
     <use xlink:href="#DejaVuSans-Bold-73" transform="translate(365.832031 0)"/>
     <use xlink:href="#DejaVuSans-Bold-20" transform="translate(425.353516 0)"/>
     <use xlink:href="#DejaVuSans-Bold-64" transform="translate(460.167969 0)"/>
     <use xlink:href="#DejaVuSans-Bold-65" transform="translate(531.75 0)"/>
     <use xlink:href="#DejaVuSans-Bold-20" transform="translate(599.572266 0)"/>
     <use xlink:href="#DejaVuSans-Bold-43" transform="translate(634.386719 0)"/>
     <use xlink:href="#DejaVuSans-Bold-6f" transform="translate(707.775391 0)"/>
     <use xlink:href="#DejaVuSans-Bold-72" transform="translate(776.476562 0)"/>
     <use xlink:href="#DejaVuSans-Bold-74" transform="translate(825.792969 0)"/>
     <use xlink:href="#DejaVuSans-Bold-6f" transform="translate(873.595703 0)"/>
     <use xlink:href="#DejaVuSans-Bold-20" transform="translate(942.296875 0)"/>
     <use xlink:href="#DejaVuSans-Bold-50" transform="translate(977.111328 0)"/>
     <use xlink:href="#DejaVuSans-Bold-6c" transform="translate(1050.402344 0)"/>
     <use xlink:href="#DejaVuSans-Bold-61" transform="translate(1084.679688 0)"/>
     <use xlink:href="#DejaVuSans-Bold-7a" transform="translate(1152.160156 0)"/>
     <use xlink:href="#DejaVuSans-Bold-6f" transform="translate(1210.363281 0)"/>
    </g>
   </g>
   <g id="text_8">
    <!-- $2,454,000 -->
    <g style="fill: #808080" transform="translate(327.338319 88.044777) scale(0.06 -0.06)">
     <defs>
      <path id="DejaVuSans-32" d="M 1228 531 
L 3431 531 
L 3431 0 
L 469 0 
L 469 531 
Q 828 903 1448 1529 
Q 2069 2156 2228 2338 
Q 2531 2678 2651 2914 
Q 2772 3150 2772 3378 
Q 2772 3750 2511 3984 
Q 2250 4219 1831 4219 
Q 1534 4219 1204 4116 
Q 875 4013 500 3803 
L 500 4441 
Q 881 4594 1212 4672 
Q 1544 4750 1819 4750 
Q 2544 4750 2975 4387 
Q 3406 4025 3406 3419 
Q 3406 3131 3298 2873 
Q 3191 2616 2906 2266 
Q 2828 2175 2409 1742 
Q 1991 1309 1228 531 
z
" transform="scale(0.015625)"/>
      <path id="DejaVuSans-35" d="M 691 4666 
L 3169 4666 
L 3169 4134 
L 1269 4134 
L 1269 2991 
Q 1406 3038 1543 3061 
Q 1681 3084 1819 3084 
Q 2600 3084 3056 2656 
Q 3513 2228 3513 1497 
Q 3513 744 3044 326 
Q 2575 -91 1722 -91 
Q 1428 -91 1123 -41 
Q 819 9 494 109 
L 494 744 
Q 775 591 1075 516 
Q 1375 441 1709 441 
Q 2250 441 2565 725 
Q 2881 1009 2881 1497 
Q 2881 1984 2565 2268 
Q 2250 2553 1709 2553 
Q 1456 2553 1204 2497 
Q 953 2441 691 2322 
L 691 4666 
z
" transform="scale(0.015625)"/>
     </defs>
     <use xlink:href="#DejaVuSans-24"/>
     <use xlink:href="#DejaVuSans-32" transform="translate(63.623047 0)"/>
     <use xlink:href="#DejaVuSans-2c" transform="translate(127.246094 0)"/>
     <use xlink:href="#DejaVuSans-34" transform="translate(159.033203 0)"/>
     <use xlink:href="#DejaVuSans-35" transform="translate(222.65625 0)"/>
     <use xlink:href="#DejaVuSans-34" transform="translate(286.279297 0)"/>
     <use xlink:href="#DejaVuSans-2c" transform="translate(349.902344 0)"/>
     <use xlink:href="#DejaVuSans-30" transform="translate(381.689453 0)"/>
     <use xlink:href="#DejaVuSans-30" transform="translate(445.3125 0)"/>
     <use xlink:href="#DejaVuSans-30" transform="translate(508.935547 0)"/>
    </g>
   </g>
   <g id="text_9">
    <!-- Pasivos de Largo Plazo -->
    <g style="fill: #808080" transform="translate(404.386306 80.111062) scale(0.06 -0.06)">
     <defs>
      <path id="DejaVuSans-Bold-4c" d="M 588 4666 
L 1791 4666 
L 1791 909 
L 3903 909 
L 3903 0 
L 588 0 
L 588 4666 
z
" transform="scale(0.015625)"/>
      <path id="DejaVuSans-Bold-67" d="M 2919 594 
Q 2688 288 2409 144 
Q 2131 0 1766 0 
Q 1125 0 706 504 
Q 288 1009 288 1791 
Q 288 2575 706 3076 
Q 1125 3578 1766 3578 
Q 2131 3578 2409 3434 
Q 2688 3291 2919 2981 
L 2919 3500 
L 4044 3500 
L 4044 353 
Q 4044 -491 3511 -936 
Q 2978 -1381 1966 -1381 
Q 1638 -1381 1331 -1331 
Q 1025 -1281 716 -1178 
L 716 -306 
Q 1009 -475 1290 -558 
Q 1572 -641 1856 -641 
Q 2406 -641 2662 -400 
Q 2919 -159 2919 353 
L 2919 594 
z
M 2181 2772 
Q 1834 2772 1640 2515 
Q 1447 2259 1447 1791 
Q 1447 1309 1634 1061 
Q 1822 813 2181 813 
Q 2531 813 2725 1069 
Q 2919 1325 2919 1791 
Q 2919 2259 2725 2515 
Q 2531 2772 2181 2772 
z
" transform="scale(0.015625)"/>
     </defs>
     <use xlink:href="#DejaVuSans-Bold-50"/>
     <use xlink:href="#DejaVuSans-Bold-61" transform="translate(70.666016 0)"/>
     <use xlink:href="#DejaVuSans-Bold-73" transform="translate(138.146484 0)"/>
     <use xlink:href="#DejaVuSans-Bold-69" transform="translate(197.667969 0)"/>
     <use xlink:href="#DejaVuSans-Bold-76" transform="translate(231.945312 0)"/>
     <use xlink:href="#DejaVuSans-Bold-6f" transform="translate(297.130859 0)"/>
     <use xlink:href="#DejaVuSans-Bold-73" transform="translate(365.832031 0)"/>
     <use xlink:href="#DejaVuSans-Bold-20" transform="translate(425.353516 0)"/>
     <use xlink:href="#DejaVuSans-Bold-64" transform="translate(460.167969 0)"/>
     <use xlink:href="#DejaVuSans-Bold-65" transform="translate(531.75 0)"/>
     <use xlink:href="#DejaVuSans-Bold-20" transform="translate(599.572266 0)"/>
     <use xlink:href="#DejaVuSans-Bold-4c" transform="translate(634.386719 0)"/>
     <use xlink:href="#DejaVuSans-Bold-61" transform="translate(698.107422 0)"/>
     <use xlink:href="#DejaVuSans-Bold-72" transform="translate(765.587891 0)"/>
     <use xlink:href="#DejaVuSans-Bold-67" transform="translate(814.904297 0)"/>
     <use xlink:href="#DejaVuSans-Bold-6f" transform="translate(886.486328 0)"/>
     <use xlink:href="#DejaVuSans-Bold-20" transform="translate(955.1875 0)"/>
     <use xlink:href="#DejaVuSans-Bold-50" transform="translate(990.001953 0)"/>
     <use xlink:href="#DejaVuSans-Bold-6c" transform="translate(1063.292969 0)"/>
     <use xlink:href="#DejaVuSans-Bold-61" transform="translate(1097.570312 0)"/>
     <use xlink:href="#DejaVuSans-Bold-7a" transform="translate(1165.050781 0)"/>
     <use xlink:href="#DejaVuSans-Bold-6f" transform="translate(1223.253906 0)"/>
    </g>
   </g>
   <g id="text_10">
    <!-- $1,250,000 -->
    <g style="fill: #808080" transform="translate(425.968493 88.044777) scale(0.06 -0.06)">
     <use xlink:href="#DejaVuSans-24"/>
     <use xlink:href="#DejaVuSans-31" transform="translate(63.623047 0)"/>
     <use xlink:href="#DejaVuSans-2c" transform="translate(127.246094 0)"/>
     <use xlink:href="#DejaVuSans-32" transform="translate(159.033203 0)"/>
     <use xlink:href="#DejaVuSans-35" transform="translate(222.65625 0)"/>
     <use xlink:href="#DejaVuSans-30" transform="translate(286.279297 0)"/>
     <use xlink:href="#DejaVuSans-2c" transform="translate(349.902344 0)"/>
     <use xlink:href="#DejaVuSans-30" transform="translate(381.689453 0)"/>
     <use xlink:href="#DejaVuSans-30" transform="translate(445.3125 0)"/>
     <use xlink:href="#DejaVuSans-30" transform="translate(508.935547 0)"/>
    </g>
   </g>
   <g id="text_11">
    <!-- = -->
    <g style="fill: #808080" transform="translate(91.23601 84.658071) scale(0.16 -0.16)">
     <defs>
      <path id="DejaVuSans-Bold-3d" d="M 678 3084 
L 4684 3084 
L 4684 2350 
L 678 2350 
L 678 3084 
z
M 678 1663 
L 4684 1663 
L 4684 922 
L 678 922 
L 678 1663 
z
" transform="scale(0.015625)"/>
     </defs>
     <use xlink:href="#DejaVuSans-Bold-3d"/>
    </g>
   </g>
   <g id="text_12">
    <!-- + -->
    <g style="fill: #808080" transform="translate(189.866184 84.658071) scale(0.16 -0.16)">
     <defs>
      <path id="DejaVuSans-Bold-2b" d="M 3053 4013 
L 3053 2375 
L 4684 2375 
L 4684 1638 
L 3053 1638 
L 3053 0 
L 2309 0 
L 2309 1638 
L 678 1638 
L 678 2375 
L 2309 2375 
L 2309 4013 
L 3053 4013 
z
" transform="scale(0.015625)"/>
     </defs>
     <use xlink:href="#DejaVuSans-Bold-2b"/>
    </g>
   </g>
   <g id="text_13">
    <!-- - -->
    <g style="fill: #808080" transform="translate(291.880108 84.658071) scale(0.16 -0.16)">
     <defs>
      <path id="DejaVuSans-Bold-2d" d="M 347 2297 
L 2309 2297 
L 2309 1388 
L 347 1388 
L 347 2297 
z
" transform="scale(0.015625)"/>
     </defs>
     <use xlink:href="#DejaVuSans-Bold-2d"/>
    </g>
   </g>
   <g id="text_14">
    <!-- - -->
    <g style="fill: #808080" transform="translate(390.510281 84.658071) scale(0.16 -0.16)">
     <use xlink:href="#DejaVuSans-Bold-2d"/>
    </g>
   </g>
   <g id="line2d_2">
    <path d="M 83.145234 71.28 
L 112.734286 71.28 
" clip-path="url(#paf3941889b)" style="fill: none; stroke: #ffffff; stroke-width: 3; stroke-linecap: square"/>
   </g>
  </g>
 </g>
 <defs>
  <clipPath id="paf3941889b">
   <rect x="7.2" y="7.2" width="477.370041" height="64.08"/>
  </clipPath>
 </defs>
</svg>
