<?xml version="1.0" encoding="utf-8" standalone="no"?>
<!DOCTYPE svg PUBLIC "-//W3C//DTD SVG 1.1//EN"
  "http://www.w3.org/Graphics/SVG/1.1/DTD/svg11.dtd">
<svg xmlns:xlink="http://www.w3.org/1999/xlink" width="495.640041pt" height="96.492589pt" viewBox="0 0 495.640041 96.492589" xmlns="http://www.w3.org/2000/svg" version="1.1">
 <metadata>
  <rdf:RDF xmlns:dc="http://purl.org/dc/elements/1.1/" xmlns:cc="http://creativecommons.org/ns#" xmlns:rdf="http://www.w3.org/1999/02/22-rdf-syntax-ns#">
   <cc:Work>
    <dc:type rdf:resource="http://purl.org/dc/dcmitype/StillImage"/>
    <dc:date>2025-07-19T15:48:00.036756</dc:date>
    <dc:format>image/svg+xml</dc:format>
    <dc:creator>
     <cc:Agent>
      <dc:title>Matplotlib v3.10.3, https://matplotlib.org/</dc:title>
     </cc:Agent>
    </dc:creator>
   </cc:Work>
  </rdf:RDF>
 </metadata>
 <defs>
  <style type="text/css">*{stroke-linejoin: round; stroke-linecap: butt}</style>
 </defs>
 <g id="figure_1">
  <g id="patch_1">
   <path d="M 0 96.492589 
L 495.640041 96.492589 
L 495.640041 0 
L 0 0 
z
" style="fill: #ffffff"/>
  </g>
  <g id="axes_1">
   <g id="patch_2">
    <path d="M 7.2 71.28 
L 488.440041 71.28 
L 488.440041 7.2 
L 7.2 7.2 
z
" style="fill: #ffffff"/>
   </g>
   <g id="matplotlib.axis_1"/>
   <g id="matplotlib.axis_2"/>
   <g id="line2d_1">
    <path d="M 7.2 71.28 
L 488.440041 71.28 
" clip-path="url(#p240cb7a75e)" style="fill: none; stroke: #d3d3d3; stroke-width: 3; stroke-linecap: square"/>
   </g>
   <g id="patch_3">
    <path d="M 29.074547 71.28 
L 68.846452 71.28 
L 68.846452 10.251429 
L 29.074547 10.251429 
z
" clip-path="url(#p240cb7a75e)" style="fill: #e9989e"/>
   </g>
   <g id="patch_4">
    <path d="M 128.504308 71.28 
L 168.276212 71.28 
L 168.276212 27.949899 
L 128.504308 27.949899 
z
" clip-path="url(#p240cb7a75e)" style="fill: #ea638c"/>
   </g>
   <g id="patch_5">
    <path d="M 227.934069 71.28 
L 267.705973 71.28 
L 267.705973 53.58153 
L 227.934069 53.58153 
z
" clip-path="url(#p240cb7a75e)" style="fill: #c4448c"/>
   </g>
   <g id="patch_6">
    <path d="M 327.363829 71.28 
L 367.135733 71.28 
L 367.135733 60.054509 
L 327.363829 60.054509 
z
" clip-path="url(#p240cb7a75e)" style="fill: #8f3192"/>
   </g>
   <g id="patch_7">
    <path d="M 426.79359 71.28 
L 466.565494 71.28 
L 466.565494 64.807021 
L 426.79359 64.807021 
z
" clip-path="url(#p240cb7a75e)" style="fill: #7f2e90"/>
   </g>
   <g id="text_1">
    <!-- Ingresos -->
    <g style="fill: #808080" transform="translate(34.415187 80.064187) scale(0.06 -0.06)">
     <defs>
      <path id="DejaVuSans-Bold-49" d="M 588 4666 
L 1791 4666 
L 1791 0 
L 588 0 
L 588 4666 
z
" transform="scale(0.015625)"/>
      <path id="DejaVuSans-Bold-6e" d="M 4056 2131 
L 4056 0 
L 2931 0 
L 2931 347 
L 2931 1631 
Q 2931 2084 2911 2256 
Q 2891 2428 2841 2509 
Q 2775 2619 2662 2680 
Q 2550 2741 2406 2741 
Q 2056 2741 1856 2470 
Q 1656 2200 1656 1722 
L 1656 0 
L 538 0 
L 538 3500 
L 1656 3500 
L 1656 2988 
Q 1909 3294 2193 3439 
Q 2478 3584 2822 3584 
Q 3428 3584 3742 3212 
Q 4056 2841 4056 2131 
z
" transform="scale(0.015625)"/>
      <path id="DejaVuSans-Bold-67" d="M 2919 594 
Q 2688 288 2409 144 
Q 2131 0 1766 0 
Q 1125 0 706 504 
Q 288 1009 288 1791 
Q 288 2575 706 3076 
Q 1125 3578 1766 3578 
Q 2131 3578 2409 3434 
Q 2688 3291 2919 2981 
L 2919 3500 
L 4044 3500 
L 4044 353 
Q 4044 -491 3511 -936 
Q 2978 -1381 1966 -1381 
Q 1638 -1381 1331 -1331 
Q 1025 -1281 716 -1178 
L 716 -306 
Q 1009 -475 1290 -558 
Q 1572 -641 1856 -641 
Q 2406 -641 2662 -400 
Q 2919 -159 2919 353 
L 2919 594 
z
M 2181 2772 
Q 1834 2772 1640 2515 
Q 1447 2259 1447 1791 
Q 1447 1309 1634 1061 
Q 1822 813 2181 813 
Q 2531 813 2725 1069 
Q 2919 1325 2919 1791 
Q 2919 2259 2725 2515 
Q 2531 2772 2181 2772 
z
" transform="scale(0.015625)"/>
      <path id="DejaVuSans-Bold-72" d="M 3138 2547 
Q 2991 2616 2845 2648 
Q 2700 2681 2553 2681 
Q 2122 2681 1889 2404 
Q 1656 2128 1656 1613 
L 1656 0 
L 538 0 
L 538 3500 
L 1656 3500 
L 1656 2925 
Q 1872 3269 2151 3426 
Q 2431 3584 2822 3584 
Q 2878 3584 2943 3579 
Q 3009 3575 3134 3559 
L 3138 2547 
z
" transform="scale(0.015625)"/>
      <path id="DejaVuSans-Bold-65" d="M 4031 1759 
L 4031 1441 
L 1416 1441 
Q 1456 1047 1700 850 
Q 1944 653 2381 653 
Q 2734 653 3104 758 
Q 3475 863 3866 1075 
L 3866 213 
Q 3469 63 3072 -14 
Q 2675 -91 2278 -91 
Q 1328 -91 801 392 
Q 275 875 275 1747 
Q 275 2603 792 3093 
Q 1309 3584 2216 3584 
Q 3041 3584 3536 3087 
Q 4031 2591 4031 1759 
z
M 2881 2131 
Q 2881 2450 2695 2645 
Q 2509 2841 2209 2841 
Q 1884 2841 1681 2658 
Q 1478 2475 1428 2131 
L 2881 2131 
z
" transform="scale(0.015625)"/>
      <path id="DejaVuSans-Bold-73" d="M 3272 3391 
L 3272 2541 
Q 2913 2691 2578 2766 
Q 2244 2841 1947 2841 
Q 1628 2841 1473 2761 
Q 1319 2681 1319 2516 
Q 1319 2381 1436 2309 
Q 1553 2238 1856 2203 
L 2053 2175 
Q 2913 2066 3209 1816 
Q 3506 1566 3506 1031 
Q 3506 472 3093 190 
Q 2681 -91 1863 -91 
Q 1516 -91 1145 -36 
Q 775 19 384 128 
L 384 978 
Q 719 816 1070 734 
Q 1422 653 1784 653 
Q 2113 653 2278 743 
Q 2444 834 2444 1013 
Q 2444 1163 2330 1236 
Q 2216 1309 1875 1350 
L 1678 1375 
Q 931 1469 631 1722 
Q 331 1975 331 2491 
Q 331 3047 712 3315 
Q 1094 3584 1881 3584 
Q 2191 3584 2531 3537 
Q 2872 3491 3272 3391 
z
" transform="scale(0.015625)"/>
      <path id="DejaVuSans-Bold-6f" d="M 2203 2784 
Q 1831 2784 1636 2517 
Q 1441 2250 1441 1747 
Q 1441 1244 1636 976 
Q 1831 709 2203 709 
Q 2569 709 2762 976 
Q 2956 1244 2956 1747 
Q 2956 2250 2762 2517 
Q 2569 2784 2203 2784 
z
M 2203 3584 
Q 3106 3584 3614 3096 
Q 4122 2609 4122 1747 
Q 4122 884 3614 396 
Q 3106 -91 2203 -91 
Q 1297 -91 786 396 
Q 275 884 275 1747 
Q 275 2609 786 3096 
Q 1297 3584 2203 3584 
z
" transform="scale(0.015625)"/>
     </defs>
     <use xlink:href="#DejaVuSans-Bold-49"/>
     <use xlink:href="#DejaVuSans-Bold-6e" transform="translate(37.207031 0)"/>
     <use xlink:href="#DejaVuSans-Bold-67" transform="translate(108.398438 0)"/>
     <use xlink:href="#DejaVuSans-Bold-72" transform="translate(179.980469 0)"/>
     <use xlink:href="#DejaVuSans-Bold-65" transform="translate(229.296875 0)"/>
     <use xlink:href="#DejaVuSans-Bold-73" transform="translate(297.119141 0)"/>
     <use xlink:href="#DejaVuSans-Bold-6f" transform="translate(356.640625 0)"/>
     <use xlink:href="#DejaVuSans-Bold-73" transform="translate(425.341797 0)"/>
    </g>
   </g>
   <g id="text_2">
    <!-- $6,612,000 -->
    <g style="fill: #808080" transform="translate(31.783624 88.044777) scale(0.06 -0.06)">
     <defs>
      <path id="DejaVuSans-24" d="M 2163 -941 
L 1850 -941 
L 1847 0 
Q 1519 6 1191 76 
Q 863 147 531 288 
L 531 850 
Q 850 650 1176 548 
Q 1503 447 1850 444 
L 1850 1869 
Q 1159 1981 845 2250 
Q 531 2519 531 2988 
Q 531 3497 872 3790 
Q 1213 4084 1850 4128 
L 1850 4863 
L 2163 4863 
L 2163 4138 
Q 2453 4125 2725 4076 
Q 2997 4028 3256 3944 
L 3256 3397 
Q 2997 3528 2723 3600 
Q 2450 3672 2163 3684 
L 2163 2350 
Q 2872 2241 3206 1959 
Q 3541 1678 3541 1191 
Q 3541 663 3186 358 
Q 2831 53 2163 6 
L 2163 -941 
z
M 1850 2406 
L 1850 3688 
Q 1488 3647 1297 3481 
Q 1106 3316 1106 3041 
Q 1106 2772 1282 2622 
Q 1459 2472 1850 2406 
z
M 2163 1806 
L 2163 453 
Q 2559 506 2761 678 
Q 2963 850 2963 1131 
Q 2963 1406 2770 1568 
Q 2578 1731 2163 1806 
z
" transform="scale(0.015625)"/>
      <path id="DejaVuSans-36" d="M 2113 2584 
Q 1688 2584 1439 2293 
Q 1191 2003 1191 1497 
Q 1191 994 1439 701 
Q 1688 409 2113 409 
Q 2538 409 2786 701 
Q 3034 994 3034 1497 
Q 3034 2003 2786 2293 
Q 2538 2584 2113 2584 
z
M 3366 4563 
L 3366 3988 
Q 3128 4100 2886 4159 
Q 2644 4219 2406 4219 
Q 1781 4219 1451 3797 
Q 1122 3375 1075 2522 
Q 1259 2794 1537 2939 
Q 1816 3084 2150 3084 
Q 2853 3084 3261 2657 
Q 3669 2231 3669 1497 
Q 3669 778 3244 343 
Q 2819 -91 2113 -91 
Q 1303 -91 875 529 
Q 447 1150 447 2328 
Q 447 3434 972 4092 
Q 1497 4750 2381 4750 
Q 2619 4750 2861 4703 
Q 3103 4656 3366 4563 
z
" transform="scale(0.015625)"/>
      <path id="DejaVuSans-2c" d="M 750 794 
L 1409 794 
L 1409 256 
L 897 -744 
L 494 -744 
L 750 256 
L 750 794 
z
" transform="scale(0.015625)"/>
      <path id="DejaVuSans-31" d="M 794 531 
L 1825 531 
L 1825 4091 
L 703 3866 
L 703 4441 
L 1819 4666 
L 2450 4666 
L 2450 531 
L 3481 531 
L 3481 0 
L 794 0 
L 794 531 
z
" transform="scale(0.015625)"/>
      <path id="DejaVuSans-32" d="M 1228 531 
L 3431 531 
L 3431 0 
L 469 0 
L 469 531 
Q 828 903 1448 1529 
Q 2069 2156 2228 2338 
Q 2531 2678 2651 2914 
Q 2772 3150 2772 3378 
Q 2772 3750 2511 3984 
Q 2250 4219 1831 4219 
Q 1534 4219 1204 4116 
Q 875 4013 500 3803 
L 500 4441 
Q 881 4594 1212 4672 
Q 1544 4750 1819 4750 
Q 2544 4750 2975 4387 
Q 3406 4025 3406 3419 
Q 3406 3131 3298 2873 
Q 3191 2616 2906 2266 
Q 2828 2175 2409 1742 
Q 1991 1309 1228 531 
z
" transform="scale(0.015625)"/>
      <path id="DejaVuSans-30" d="M 2034 4250 
Q 1547 4250 1301 3770 
Q 1056 3291 1056 2328 
Q 1056 1369 1301 889 
Q 1547 409 2034 409 
Q 2525 409 2770 889 
Q 3016 1369 3016 2328 
Q 3016 3291 2770 3770 
Q 2525 4250 2034 4250 
z
M 2034 4750 
Q 2819 4750 3233 4129 
Q 3647 3509 3647 2328 
Q 3647 1150 3233 529 
Q 2819 -91 2034 -91 
Q 1250 -91 836 529 
Q 422 1150 422 2328 
Q 422 3509 836 4129 
Q 1250 4750 2034 4750 
z
" transform="scale(0.015625)"/>
     </defs>
     <use xlink:href="#DejaVuSans-24"/>
     <use xlink:href="#DejaVuSans-36" transform="translate(63.623047 0)"/>
     <use xlink:href="#DejaVuSans-2c" transform="translate(127.246094 0)"/>
     <use xlink:href="#DejaVuSans-36" transform="translate(159.033203 0)"/>
     <use xlink:href="#DejaVuSans-31" transform="translate(222.65625 0)"/>
     <use xlink:href="#DejaVuSans-32" transform="translate(286.279297 0)"/>
     <use xlink:href="#DejaVuSans-2c" transform="translate(349.902344 0)"/>
     <use xlink:href="#DejaVuSans-30" transform="translate(381.689453 0)"/>
     <use xlink:href="#DejaVuSans-30" transform="translate(445.3125 0)"/>
     <use xlink:href="#DejaVuSans-30" transform="translate(508.935547 0)"/>
    </g>
   </g>
   <g id="text_3">
    <!-- Costo de Ventas -->
    <g style="fill: #808080" transform="translate(121.004948 80.111062) scale(0.06 -0.06)">
     <defs>
      <path id="DejaVuSans-Bold-43" d="M 4288 256 
Q 3956 84 3597 -3 
Q 3238 -91 2847 -91 
Q 1681 -91 1000 561 
Q 319 1213 319 2328 
Q 319 3447 1000 4098 
Q 1681 4750 2847 4750 
Q 3238 4750 3597 4662 
Q 3956 4575 4288 4403 
L 4288 3438 
Q 3953 3666 3628 3772 
Q 3303 3878 2944 3878 
Q 2300 3878 1931 3465 
Q 1563 3053 1563 2328 
Q 1563 1606 1931 1193 
Q 2300 781 2944 781 
Q 3303 781 3628 887 
Q 3953 994 4288 1222 
L 4288 256 
z
" transform="scale(0.015625)"/>
      <path id="DejaVuSans-Bold-74" d="M 1759 4494 
L 1759 3500 
L 2913 3500 
L 2913 2700 
L 1759 2700 
L 1759 1216 
Q 1759 972 1856 886 
Q 1953 800 2241 800 
L 2816 800 
L 2816 0 
L 1856 0 
Q 1194 0 917 276 
Q 641 553 641 1216 
L 641 2700 
L 84 2700 
L 84 3500 
L 641 3500 
L 641 4494 
L 1759 4494 
z
" transform="scale(0.015625)"/>
      <path id="DejaVuSans-Bold-20" transform="scale(0.015625)"/>
      <path id="DejaVuSans-Bold-64" d="M 2919 2988 
L 2919 4863 
L 4044 4863 
L 4044 0 
L 2919 0 
L 2919 506 
Q 2688 197 2409 53 
Q 2131 -91 1766 -91 
Q 1119 -91 703 423 
Q 288 938 288 1747 
Q 288 2556 703 3070 
Q 1119 3584 1766 3584 
Q 2128 3584 2408 3439 
Q 2688 3294 2919 2988 
z
M 2181 722 
Q 2541 722 2730 984 
Q 2919 1247 2919 1747 
Q 2919 2247 2730 2509 
Q 2541 2772 2181 2772 
Q 1825 2772 1636 2509 
Q 1447 2247 1447 1747 
Q 1447 1247 1636 984 
Q 1825 722 2181 722 
z
" transform="scale(0.015625)"/>
      <path id="DejaVuSans-Bold-56" d="M 31 4666 
L 1241 4666 
L 2478 1222 
L 3713 4666 
L 4922 4666 
L 3194 0 
L 1759 0 
L 31 4666 
z
" transform="scale(0.015625)"/>
      <path id="DejaVuSans-Bold-61" d="M 2106 1575 
Q 1756 1575 1579 1456 
Q 1403 1338 1403 1106 
Q 1403 894 1545 773 
Q 1688 653 1941 653 
Q 2256 653 2472 879 
Q 2688 1106 2688 1447 
L 2688 1575 
L 2106 1575 
z
M 3816 1997 
L 3816 0 
L 2688 0 
L 2688 519 
Q 2463 200 2181 54 
Q 1900 -91 1497 -91 
Q 953 -91 614 226 
Q 275 544 275 1050 
Q 275 1666 698 1953 
Q 1122 2241 2028 2241 
L 2688 2241 
L 2688 2328 
Q 2688 2594 2478 2717 
Q 2269 2841 1825 2841 
Q 1466 2841 1156 2769 
Q 847 2697 581 2553 
L 581 3406 
Q 941 3494 1303 3539 
Q 1666 3584 2028 3584 
Q 2975 3584 3395 3211 
Q 3816 2838 3816 1997 
z
" transform="scale(0.015625)"/>
     </defs>
     <use xlink:href="#DejaVuSans-Bold-43"/>
     <use xlink:href="#DejaVuSans-Bold-6f" transform="translate(73.388672 0)"/>
     <use xlink:href="#DejaVuSans-Bold-73" transform="translate(142.089844 0)"/>
     <use xlink:href="#DejaVuSans-Bold-74" transform="translate(201.611328 0)"/>
     <use xlink:href="#DejaVuSans-Bold-6f" transform="translate(249.414062 0)"/>
     <use xlink:href="#DejaVuSans-Bold-20" transform="translate(318.115234 0)"/>
     <use xlink:href="#DejaVuSans-Bold-64" transform="translate(352.929688 0)"/>
     <use xlink:href="#DejaVuSans-Bold-65" transform="translate(424.511719 0)"/>
     <use xlink:href="#DejaVuSans-Bold-20" transform="translate(492.333984 0)"/>
     <use xlink:href="#DejaVuSans-Bold-56" transform="translate(527.148438 0)"/>
     <use xlink:href="#DejaVuSans-Bold-65" transform="translate(599.041016 0)"/>
     <use xlink:href="#DejaVuSans-Bold-6e" transform="translate(666.863281 0)"/>
     <use xlink:href="#DejaVuSans-Bold-74" transform="translate(738.054688 0)"/>
     <use xlink:href="#DejaVuSans-Bold-61" transform="translate(785.857422 0)"/>
     <use xlink:href="#DejaVuSans-Bold-73" transform="translate(853.337891 0)"/>
    </g>
   </g>
   <g id="text_4">
    <!-- $4,694,500 -->
    <g style="fill: #808080" transform="translate(131.213385 88.044777) scale(0.06 -0.06)">
     <defs>
      <path id="DejaVuSans-34" d="M 2419 4116 
L 825 1625 
L 2419 1625 
L 2419 4116 
z
M 2253 4666 
L 3047 4666 
L 3047 1625 
L 3713 1625 
L 3713 1100 
L 3047 1100 
L 3047 0 
L 2419 0 
L 2419 1100 
L 313 1100 
L 313 1709 
L 2253 4666 
z
" transform="scale(0.015625)"/>
      <path id="DejaVuSans-39" d="M 703 97 
L 703 672 
Q 941 559 1184 500 
Q 1428 441 1663 441 
Q 2288 441 2617 861 
Q 2947 1281 2994 2138 
Q 2813 1869 2534 1725 
Q 2256 1581 1919 1581 
Q 1219 1581 811 2004 
Q 403 2428 403 3163 
Q 403 3881 828 4315 
Q 1253 4750 1959 4750 
Q 2769 4750 3195 4129 
Q 3622 3509 3622 2328 
Q 3622 1225 3098 567 
Q 2575 -91 1691 -91 
Q 1453 -91 1209 -44 
Q 966 3 703 97 
z
M 1959 2075 
Q 2384 2075 2632 2365 
Q 2881 2656 2881 3163 
Q 2881 3666 2632 3958 
Q 2384 4250 1959 4250 
Q 1534 4250 1286 3958 
Q 1038 3666 1038 3163 
Q 1038 2656 1286 2365 
Q 1534 2075 1959 2075 
z
" transform="scale(0.015625)"/>
      <path id="DejaVuSans-35" d="M 691 4666 
L 3169 4666 
L 3169 4134 
L 1269 4134 
L 1269 2991 
Q 1406 3038 1543 3061 
Q 1681 3084 1819 3084 
Q 2600 3084 3056 2656 
Q 3513 2228 3513 1497 
Q 3513 744 3044 326 
Q 2575 -91 1722 -91 
Q 1428 -91 1123 -41 
Q 819 9 494 109 
L 494 744 
Q 775 591 1075 516 
Q 1375 441 1709 441 
Q 2250 441 2565 725 
Q 2881 1009 2881 1497 
Q 2881 1984 2565 2268 
Q 2250 2553 1709 2553 
Q 1456 2553 1204 2497 
Q 953 2441 691 2322 
L 691 4666 
z
" transform="scale(0.015625)"/>
     </defs>
     <use xlink:href="#DejaVuSans-24"/>
     <use xlink:href="#DejaVuSans-34" transform="translate(63.623047 0)"/>
     <use xlink:href="#DejaVuSans-2c" transform="translate(127.246094 0)"/>
     <use xlink:href="#DejaVuSans-36" transform="translate(159.033203 0)"/>
     <use xlink:href="#DejaVuSans-39" transform="translate(222.65625 0)"/>
     <use xlink:href="#DejaVuSans-34" transform="translate(286.279297 0)"/>
     <use xlink:href="#DejaVuSans-2c" transform="translate(349.902344 0)"/>
     <use xlink:href="#DejaVuSans-35" transform="translate(381.689453 0)"/>
     <use xlink:href="#DejaVuSans-30" transform="translate(445.3125 0)"/>
     <use xlink:href="#DejaVuSans-30" transform="translate(508.935547 0)"/>
    </g>
   </g>
   <g id="text_5">
    <!-- Margen Bruto -->
    <g style="fill: #808080" transform="translate(224.571896 80.064187) scale(0.06 -0.06)">
     <defs>
      <path id="DejaVuSans-Bold-4d" d="M 588 4666 
L 2119 4666 
L 3181 2169 
L 4250 4666 
L 5778 4666 
L 5778 0 
L 4641 0 
L 4641 3413 
L 3566 897 
L 2803 897 
L 1728 3413 
L 1728 0 
L 588 0 
L 588 4666 
z
" transform="scale(0.015625)"/>
      <path id="DejaVuSans-Bold-42" d="M 2456 2859 
Q 2741 2859 2887 2984 
Q 3034 3109 3034 3353 
Q 3034 3594 2887 3720 
Q 2741 3847 2456 3847 
L 1791 3847 
L 1791 2859 
L 2456 2859 
z
M 2497 819 
Q 2859 819 3042 972 
Q 3225 1125 3225 1434 
Q 3225 1738 3044 1889 
Q 2863 2041 2497 2041 
L 1791 2041 
L 1791 819 
L 2497 819 
z
M 3616 2497 
Q 4003 2384 4215 2081 
Q 4428 1778 4428 1338 
Q 4428 663 3972 331 
Q 3516 0 2584 0 
L 588 0 
L 588 4666 
L 2394 4666 
Q 3366 4666 3802 4372 
Q 4238 4078 4238 3431 
Q 4238 3091 4078 2852 
Q 3919 2613 3616 2497 
z
" transform="scale(0.015625)"/>
      <path id="DejaVuSans-Bold-75" d="M 500 1363 
L 500 3500 
L 1625 3500 
L 1625 3150 
Q 1625 2866 1622 2436 
Q 1619 2006 1619 1863 
Q 1619 1441 1641 1255 
Q 1663 1069 1716 984 
Q 1784 875 1895 815 
Q 2006 756 2150 756 
Q 2500 756 2700 1025 
Q 2900 1294 2900 1772 
L 2900 3500 
L 4019 3500 
L 4019 0 
L 2900 0 
L 2900 506 
Q 2647 200 2364 54 
Q 2081 -91 1741 -91 
Q 1134 -91 817 281 
Q 500 653 500 1363 
z
" transform="scale(0.015625)"/>
     </defs>
     <use xlink:href="#DejaVuSans-Bold-4d"/>
     <use xlink:href="#DejaVuSans-Bold-61" transform="translate(99.511719 0)"/>
     <use xlink:href="#DejaVuSans-Bold-72" transform="translate(166.992188 0)"/>
     <use xlink:href="#DejaVuSans-Bold-67" transform="translate(216.308594 0)"/>
     <use xlink:href="#DejaVuSans-Bold-65" transform="translate(287.890625 0)"/>
     <use xlink:href="#DejaVuSans-Bold-6e" transform="translate(355.712891 0)"/>
     <use xlink:href="#DejaVuSans-Bold-20" transform="translate(426.904297 0)"/>
     <use xlink:href="#DejaVuSans-Bold-42" transform="translate(461.71875 0)"/>
     <use xlink:href="#DejaVuSans-Bold-72" transform="translate(537.939453 0)"/>
     <use xlink:href="#DejaVuSans-Bold-75" transform="translate(587.255859 0)"/>
     <use xlink:href="#DejaVuSans-Bold-74" transform="translate(658.447266 0)"/>
     <use xlink:href="#DejaVuSans-Bold-6f" transform="translate(706.25 0)"/>
    </g>
   </g>
   <g id="text_6">
    <!-- $1,917,500 -->
    <g style="fill: #808080" transform="translate(230.643146 88.044777) scale(0.06 -0.06)">
     <defs>
      <path id="DejaVuSans-37" d="M 525 4666 
L 3525 4666 
L 3525 4397 
L 1831 0 
L 1172 0 
L 2766 4134 
L 525 4134 
L 525 4666 
z
" transform="scale(0.015625)"/>
     </defs>
     <use xlink:href="#DejaVuSans-24"/>
     <use xlink:href="#DejaVuSans-31" transform="translate(63.623047 0)"/>
     <use xlink:href="#DejaVuSans-2c" transform="translate(127.246094 0)"/>
     <use xlink:href="#DejaVuSans-39" transform="translate(159.033203 0)"/>
     <use xlink:href="#DejaVuSans-31" transform="translate(222.65625 0)"/>
     <use xlink:href="#DejaVuSans-37" transform="translate(286.279297 0)"/>
     <use xlink:href="#DejaVuSans-2c" transform="translate(349.902344 0)"/>
     <use xlink:href="#DejaVuSans-35" transform="translate(381.689453 0)"/>
     <use xlink:href="#DejaVuSans-30" transform="translate(445.3125 0)"/>
     <use xlink:href="#DejaVuSans-30" transform="translate(508.935547 0)"/>
    </g>
   </g>
   <g id="text_7">
    <!-- Gastos Admin. -->
    <g style="fill: #808080" transform="translate(322.753844 80.111062) scale(0.06 -0.06)">
     <defs>
      <path id="DejaVuSans-Bold-47" d="M 4781 347 
Q 4331 128 3847 18 
Q 3363 -91 2847 -91 
Q 1681 -91 1000 561 
Q 319 1213 319 2328 
Q 319 3456 1012 4103 
Q 1706 4750 2913 4750 
Q 3378 4750 3804 4662 
Q 4231 4575 4609 4403 
L 4609 3438 
Q 4219 3659 3833 3768 
Q 3447 3878 3059 3878 
Q 2341 3878 1952 3476 
Q 1563 3075 1563 2328 
Q 1563 1588 1938 1184 
Q 2313 781 3003 781 
Q 3191 781 3352 804 
Q 3513 828 3641 878 
L 3641 1784 
L 2906 1784 
L 2906 2591 
L 4781 2591 
L 4781 347 
z
" transform="scale(0.015625)"/>
      <path id="DejaVuSans-Bold-41" d="M 3419 850 
L 1538 850 
L 1241 0 
L 31 0 
L 1759 4666 
L 3194 4666 
L 4922 0 
L 3713 0 
L 3419 850 
z
M 1838 1716 
L 3116 1716 
L 2478 3572 
L 1838 1716 
z
" transform="scale(0.015625)"/>
      <path id="DejaVuSans-Bold-6d" d="M 3781 2919 
Q 3994 3244 4286 3414 
Q 4578 3584 4928 3584 
Q 5531 3584 5847 3212 
Q 6163 2841 6163 2131 
L 6163 0 
L 5038 0 
L 5038 1825 
Q 5041 1866 5042 1909 
Q 5044 1953 5044 2034 
Q 5044 2406 4934 2573 
Q 4825 2741 4581 2741 
Q 4263 2741 4089 2478 
Q 3916 2216 3909 1719 
L 3909 0 
L 2784 0 
L 2784 1825 
Q 2784 2406 2684 2573 
Q 2584 2741 2328 2741 
Q 2006 2741 1831 2477 
Q 1656 2213 1656 1722 
L 1656 0 
L 531 0 
L 531 3500 
L 1656 3500 
L 1656 2988 
Q 1863 3284 2130 3434 
Q 2397 3584 2719 3584 
Q 3081 3584 3359 3409 
Q 3638 3234 3781 2919 
z
" transform="scale(0.015625)"/>
      <path id="DejaVuSans-Bold-69" d="M 538 3500 
L 1656 3500 
L 1656 0 
L 538 0 
L 538 3500 
z
M 538 4863 
L 1656 4863 
L 1656 3950 
L 538 3950 
L 538 4863 
z
" transform="scale(0.015625)"/>
      <path id="DejaVuSans-Bold-2e" d="M 653 1209 
L 1778 1209 
L 1778 0 
L 653 0 
L 653 1209 
z
" transform="scale(0.015625)"/>
     </defs>
     <use xlink:href="#DejaVuSans-Bold-47"/>
     <use xlink:href="#DejaVuSans-Bold-61" transform="translate(82.080078 0)"/>
     <use xlink:href="#DejaVuSans-Bold-73" transform="translate(149.560547 0)"/>
     <use xlink:href="#DejaVuSans-Bold-74" transform="translate(209.082031 0)"/>
     <use xlink:href="#DejaVuSans-Bold-6f" transform="translate(256.884766 0)"/>
     <use xlink:href="#DejaVuSans-Bold-73" transform="translate(325.585938 0)"/>
     <use xlink:href="#DejaVuSans-Bold-20" transform="translate(385.107422 0)"/>
     <use xlink:href="#DejaVuSans-Bold-41" transform="translate(419.921875 0)"/>
     <use xlink:href="#DejaVuSans-Bold-64" transform="translate(497.314453 0)"/>
     <use xlink:href="#DejaVuSans-Bold-6d" transform="translate(568.896484 0)"/>
     <use xlink:href="#DejaVuSans-Bold-69" transform="translate(673.095703 0)"/>
     <use xlink:href="#DejaVuSans-Bold-6e" transform="translate(707.373047 0)"/>
     <use xlink:href="#DejaVuSans-Bold-2e" transform="translate(778.564453 0)"/>
    </g>
   </g>
   <g id="text_8">
    <!-- $1,216,200 -->
    <g style="fill: #808080" transform="translate(330.072906 88.044777) scale(0.06 -0.06)">
     <use xlink:href="#DejaVuSans-24"/>
     <use xlink:href="#DejaVuSans-31" transform="translate(63.623047 0)"/>
     <use xlink:href="#DejaVuSans-2c" transform="translate(127.246094 0)"/>
     <use xlink:href="#DejaVuSans-32" transform="translate(159.033203 0)"/>
     <use xlink:href="#DejaVuSans-31" transform="translate(222.65625 0)"/>
     <use xlink:href="#DejaVuSans-36" transform="translate(286.279297 0)"/>
     <use xlink:href="#DejaVuSans-2c" transform="translate(349.902344 0)"/>
     <use xlink:href="#DejaVuSans-32" transform="translate(381.689453 0)"/>
     <use xlink:href="#DejaVuSans-30" transform="translate(445.3125 0)"/>
     <use xlink:href="#DejaVuSans-30" transform="translate(508.935547 0)"/>
    </g>
   </g>
   <g id="text_9">
    <!-- Utilidad Operacional -->
    <g style="fill: #808080" transform="translate(412.067511 80.111062) scale(0.06 -0.06)">
     <defs>
      <path id="DejaVuSans-Bold-55" d="M 588 4666 
L 1791 4666 
L 1791 1869 
Q 1791 1291 1980 1042 
Q 2169 794 2597 794 
Q 3028 794 3217 1042 
Q 3406 1291 3406 1869 
L 3406 4666 
L 4609 4666 
L 4609 1869 
Q 4609 878 4112 393 
Q 3616 -91 2597 -91 
Q 1581 -91 1084 393 
Q 588 878 588 1869 
L 588 4666 
z
" transform="scale(0.015625)"/>
      <path id="DejaVuSans-Bold-6c" d="M 538 4863 
L 1656 4863 
L 1656 0 
L 538 0 
L 538 4863 
z
" transform="scale(0.015625)"/>
      <path id="DejaVuSans-Bold-4f" d="M 2719 3878 
Q 2169 3878 1866 3472 
Q 1563 3066 1563 2328 
Q 1563 1594 1866 1187 
Q 2169 781 2719 781 
Q 3272 781 3575 1187 
Q 3878 1594 3878 2328 
Q 3878 3066 3575 3472 
Q 3272 3878 2719 3878 
z
M 2719 4750 
Q 3844 4750 4481 4106 
Q 5119 3463 5119 2328 
Q 5119 1197 4481 553 
Q 3844 -91 2719 -91 
Q 1597 -91 958 553 
Q 319 1197 319 2328 
Q 319 3463 958 4106 
Q 1597 4750 2719 4750 
z
" transform="scale(0.015625)"/>
      <path id="DejaVuSans-Bold-70" d="M 1656 506 
L 1656 -1331 
L 538 -1331 
L 538 3500 
L 1656 3500 
L 1656 2988 
Q 1888 3294 2169 3439 
Q 2450 3584 2816 3584 
Q 3463 3584 3878 3070 
Q 4294 2556 4294 1747 
Q 4294 938 3878 423 
Q 3463 -91 2816 -91 
Q 2450 -91 2169 54 
Q 1888 200 1656 506 
z
M 2400 2772 
Q 2041 2772 1848 2508 
Q 1656 2244 1656 1747 
Q 1656 1250 1848 986 
Q 2041 722 2400 722 
Q 2759 722 2948 984 
Q 3138 1247 3138 1747 
Q 3138 2247 2948 2509 
Q 2759 2772 2400 2772 
z
" transform="scale(0.015625)"/>
      <path id="DejaVuSans-Bold-63" d="M 3366 3391 
L 3366 2478 
Q 3138 2634 2908 2709 
Q 2678 2784 2431 2784 
Q 1963 2784 1702 2511 
Q 1441 2238 1441 1747 
Q 1441 1256 1702 982 
Q 1963 709 2431 709 
Q 2694 709 2930 787 
Q 3166 866 3366 1019 
L 3366 103 
Q 3103 6 2833 -42 
Q 2563 -91 2291 -91 
Q 1344 -91 809 395 
Q 275 881 275 1747 
Q 275 2613 809 3098 
Q 1344 3584 2291 3584 
Q 2566 3584 2833 3536 
Q 3100 3488 3366 3391 
z
" transform="scale(0.015625)"/>
     </defs>
     <use xlink:href="#DejaVuSans-Bold-55"/>
     <use xlink:href="#DejaVuSans-Bold-74" transform="translate(81.201172 0)"/>
     <use xlink:href="#DejaVuSans-Bold-69" transform="translate(129.003906 0)"/>
     <use xlink:href="#DejaVuSans-Bold-6c" transform="translate(163.28125 0)"/>
     <use xlink:href="#DejaVuSans-Bold-69" transform="translate(197.558594 0)"/>
     <use xlink:href="#DejaVuSans-Bold-64" transform="translate(231.835938 0)"/>
     <use xlink:href="#DejaVuSans-Bold-61" transform="translate(303.417969 0)"/>
     <use xlink:href="#DejaVuSans-Bold-64" transform="translate(370.898438 0)"/>
     <use xlink:href="#DejaVuSans-Bold-20" transform="translate(442.480469 0)"/>
     <use xlink:href="#DejaVuSans-Bold-4f" transform="translate(477.294922 0)"/>
     <use xlink:href="#DejaVuSans-Bold-70" transform="translate(562.304688 0)"/>
     <use xlink:href="#DejaVuSans-Bold-65" transform="translate(633.886719 0)"/>
     <use xlink:href="#DejaVuSans-Bold-72" transform="translate(701.708984 0)"/>
     <use xlink:href="#DejaVuSans-Bold-61" transform="translate(751.025391 0)"/>
     <use xlink:href="#DejaVuSans-Bold-63" transform="translate(818.505859 0)"/>
     <use xlink:href="#DejaVuSans-Bold-69" transform="translate(877.783203 0)"/>
     <use xlink:href="#DejaVuSans-Bold-6f" transform="translate(912.060547 0)"/>
     <use xlink:href="#DejaVuSans-Bold-6e" transform="translate(980.761719 0)"/>
     <use xlink:href="#DejaVuSans-Bold-61" transform="translate(1051.953125 0)"/>
     <use xlink:href="#DejaVuSans-Bold-6c" transform="translate(1119.433594 0)"/>
    </g>
   </g>
   <g id="text_10">
    <!-- $701,300 -->
    <g style="fill: #808080" transform="translate(432.364854 88.044777) scale(0.06 -0.06)">
     <defs>
      <path id="DejaVuSans-33" d="M 2597 2516 
Q 3050 2419 3304 2112 
Q 3559 1806 3559 1356 
Q 3559 666 3084 287 
Q 2609 -91 1734 -91 
Q 1441 -91 1130 -33 
Q 819 25 488 141 
L 488 750 
Q 750 597 1062 519 
Q 1375 441 1716 441 
Q 2309 441 2620 675 
Q 2931 909 2931 1356 
Q 2931 1769 2642 2001 
Q 2353 2234 1838 2234 
L 1294 2234 
L 1294 2753 
L 1863 2753 
Q 2328 2753 2575 2939 
Q 2822 3125 2822 3475 
Q 2822 3834 2567 4026 
Q 2313 4219 1838 4219 
Q 1578 4219 1281 4162 
Q 984 4106 628 3988 
L 628 4550 
Q 988 4650 1302 4700 
Q 1616 4750 1894 4750 
Q 2613 4750 3031 4423 
Q 3450 4097 3450 3541 
Q 3450 3153 3228 2886 
Q 3006 2619 2597 2516 
z
" transform="scale(0.015625)"/>
     </defs>
     <use xlink:href="#DejaVuSans-24"/>
     <use xlink:href="#DejaVuSans-37" transform="translate(63.623047 0)"/>
     <use xlink:href="#DejaVuSans-30" transform="translate(127.246094 0)"/>
     <use xlink:href="#DejaVuSans-31" transform="translate(190.869141 0)"/>
     <use xlink:href="#DejaVuSans-2c" transform="translate(254.492188 0)"/>
     <use xlink:href="#DejaVuSans-33" transform="translate(286.279297 0)"/>
     <use xlink:href="#DejaVuSans-30" transform="translate(349.902344 0)"/>
     <use xlink:href="#DejaVuSans-30" transform="translate(413.525391 0)"/>
    </g>
   </g>
   <g id="text_11">
    <!-- - -->
    <g style="fill: #808080" transform="translate(95.35538 84.658071) scale(0.16 -0.16)">
     <defs>
      <path id="DejaVuSans-Bold-2d" d="M 347 2297 
L 2309 2297 
L 2309 1388 
L 347 1388 
L 347 2297 
z
" transform="scale(0.015625)"/>
     </defs>
     <use xlink:href="#DejaVuSans-Bold-2d"/>
    </g>
   </g>
   <g id="text_12">
    <!-- = -->
    <g style="fill: #808080" transform="translate(191.40139 84.658071) scale(0.16 -0.16)">
     <defs>
      <path id="DejaVuSans-Bold-3d" d="M 678 3084 
L 4684 3084 
L 4684 2350 
L 678 2350 
L 678 3084 
z
M 678 1663 
L 4684 1663 
L 4684 922 
L 678 922 
L 678 1663 
z
" transform="scale(0.015625)"/>
     </defs>
     <use xlink:href="#DejaVuSans-Bold-3d"/>
    </g>
   </g>
   <g id="text_13">
    <!-- - -->
    <g style="fill: #808080" transform="translate(294.214901 84.658071) scale(0.16 -0.16)">
     <use xlink:href="#DejaVuSans-Bold-2d"/>
    </g>
   </g>
   <g id="text_14">
    <!-- = -->
    <g style="fill: #808080" transform="translate(390.260912 84.658071) scale(0.16 -0.16)">
     <use xlink:href="#DejaVuSans-Bold-3d"/>
    </g>
   </g>
   <g id="line2d_2">
    <path d="M 183.190676 71.28 
L 213.019604 71.28 
" clip-path="url(#p240cb7a75e)" style="fill: none; stroke: #ffffff; stroke-width: 3; stroke-linecap: square"/>
   </g>
   <g id="line2d_3">
    <path d="M 382.050197 71.28 
L 411.879126 71.28 
" clip-path="url(#p240cb7a75e)" style="fill: none; stroke: #ffffff; stroke-width: 3; stroke-linecap: square"/>
   </g>
  </g>
 </g>
 <defs>
  <clipPath id="p240cb7a75e">
   <rect x="7.2" y="7.2" width="481.240041" height="64.08"/>
  </clipPath>
 </defs>
</svg>
