<?xml version="1.0" encoding="utf-8" standalone="no"?>
<!DOCTYPE svg PUBLIC "-//W3C//DTD SVG 1.1//EN"
  "http://www.w3.org/Graphics/SVG/1.1/DTD/svg11.dtd">
<svg xmlns:xlink="http://www.w3.org/1999/xlink" width="711.045pt" height="245.702756pt" viewBox="0 0 711.045 245.702756" xmlns="http://www.w3.org/2000/svg" version="1.1">
 <metadata>
  <rdf:RDF xmlns:dc="http://purl.org/dc/elements/1.1/" xmlns:cc="http://creativecommons.org/ns#" xmlns:rdf="http://www.w3.org/1999/02/22-rdf-syntax-ns#">
   <cc:Work>
    <dc:type rdf:resource="http://purl.org/dc/dcmitype/StillImage"/>
    <dc:date>2025-07-19T15:47:58.850556</dc:date>
    <dc:format>image/svg+xml</dc:format>
    <dc:creator>
     <cc:Agent>
      <dc:title>Matplotlib v3.10.3, https://matplotlib.org/</dc:title>
     </cc:Agent>
    </dc:creator>
   </cc:Work>
  </rdf:RDF>
 </metadata>
 <defs>
  <style type="text/css">*{stroke-linejoin: round; stroke-linecap: butt}</style>
 </defs>
 <g id="figure_1">
  <g id="patch_1">
   <path d="M 0 245.702756 
L 711.045 245.702756 
L 711.045 0 
L 0 0 
z
" style="fill: #ffffff"/>
  </g>
  <g id="axes_1">
   <g id="LineCollection_1">
    <path d="M 42.03225 114.713156 
L 111.69675 114.713156 
" clip-path="url(#p828faea64a)" style="fill: none; stroke: #808080; stroke-width: 1.2"/>
   </g>
   <g id="LineCollection_2">
    <path d="M 223.15995 114.713156 
L 383.3883 114.713156 
" clip-path="url(#p828faea64a)" style="fill: none; stroke: #808080; stroke-width: 1.2"/>
   </g>
   <g id="LineCollection_3">
    <path d="M 460.01925 114.713156 
L 529.68375 114.713156 
" clip-path="url(#p828faea64a)" style="fill: none; stroke: #808080; stroke-width: 1.2"/>
   </g>
   <g id="text_1">
    <g id="patch_2">
     <path d="M 36.8045 108.844006 
L 116.9245 108.844006 
L 116.9245 24.301506 
L 36.8045 24.301506 
z
" style="fill: #f5989d; stroke: #f5989d; stroke-linejoin: miter"/>
    </g>
    <!-- - -->
    <g style="fill: #f5989d" transform="translate(75.2045 68.780256) scale(0.08 -0.08)">
     <defs>
      <path id="DejaVuSans-Bold-2d" d="M 347 2297 
L 2309 2297 
L 2309 1388 
L 347 1388 
L 347 2297 
z
" transform="scale(0.015625)"/>
     </defs>
     <use xlink:href="#DejaVuSans-Bold-2d"/>
    </g>
   </g>
   <g id="text_2">
    <!-- Utilidad -->
    <g style="fill: #ffffff" transform="translate(56.952703 60.578578) scale(0.09 -0.09)">
     <defs>
      <path id="DejaVuSans-Bold-55" d="M 588 4666 
L 1791 4666 
L 1791 1869 
Q 1791 1291 1980 1042 
Q 2169 794 2597 794 
Q 3028 794 3217 1042 
Q 3406 1291 3406 1869 
L 3406 4666 
L 4609 4666 
L 4609 1869 
Q 4609 878 4112 393 
Q 3616 -91 2597 -91 
Q 1581 -91 1084 393 
Q 588 878 588 1869 
L 588 4666 
z
" transform="scale(0.015625)"/>
      <path id="DejaVuSans-Bold-74" d="M 1759 4494 
L 1759 3500 
L 2913 3500 
L 2913 2700 
L 1759 2700 
L 1759 1216 
Q 1759 972 1856 886 
Q 1953 800 2241 800 
L 2816 800 
L 2816 0 
L 1856 0 
Q 1194 0 917 276 
Q 641 553 641 1216 
L 641 2700 
L 84 2700 
L 84 3500 
L 641 3500 
L 641 4494 
L 1759 4494 
z
" transform="scale(0.015625)"/>
      <path id="DejaVuSans-Bold-69" d="M 538 3500 
L 1656 3500 
L 1656 0 
L 538 0 
L 538 3500 
z
M 538 4863 
L 1656 4863 
L 1656 3950 
L 538 3950 
L 538 4863 
z
" transform="scale(0.015625)"/>
      <path id="DejaVuSans-Bold-6c" d="M 538 4863 
L 1656 4863 
L 1656 0 
L 538 0 
L 538 4863 
z
" transform="scale(0.015625)"/>
      <path id="DejaVuSans-Bold-64" d="M 2919 2988 
L 2919 4863 
L 4044 4863 
L 4044 0 
L 2919 0 
L 2919 506 
Q 2688 197 2409 53 
Q 2131 -91 1766 -91 
Q 1119 -91 703 423 
Q 288 938 288 1747 
Q 288 2556 703 3070 
Q 1119 3584 1766 3584 
Q 2128 3584 2408 3439 
Q 2688 3294 2919 2988 
z
M 2181 722 
Q 2541 722 2730 984 
Q 2919 1247 2919 1747 
Q 2919 2247 2730 2509 
Q 2541 2772 2181 2772 
Q 1825 2772 1636 2509 
Q 1447 2247 1447 1747 
Q 1447 1247 1636 984 
Q 1825 722 2181 722 
z
" transform="scale(0.015625)"/>
      <path id="DejaVuSans-Bold-61" d="M 2106 1575 
Q 1756 1575 1579 1456 
Q 1403 1338 1403 1106 
Q 1403 894 1545 773 
Q 1688 653 1941 653 
Q 2256 653 2472 879 
Q 2688 1106 2688 1447 
L 2688 1575 
L 2106 1575 
z
M 3816 1997 
L 3816 0 
L 2688 0 
L 2688 519 
Q 2463 200 2181 54 
Q 1900 -91 1497 -91 
Q 953 -91 614 226 
Q 275 544 275 1050 
Q 275 1666 698 1953 
Q 1122 2241 2028 2241 
L 2688 2241 
L 2688 2328 
Q 2688 2594 2478 2717 
Q 2269 2841 1825 2841 
Q 1466 2841 1156 2769 
Q 847 2697 581 2553 
L 581 3406 
Q 941 3494 1303 3539 
Q 1666 3584 2028 3584 
Q 2975 3584 3395 3211 
Q 3816 2838 3816 1997 
z
" transform="scale(0.015625)"/>
     </defs>
     <use xlink:href="#DejaVuSans-Bold-55"/>
     <use xlink:href="#DejaVuSans-Bold-74" transform="translate(81.201172 0)"/>
     <use xlink:href="#DejaVuSans-Bold-69" transform="translate(129.003906 0)"/>
     <use xlink:href="#DejaVuSans-Bold-6c" transform="translate(163.28125 0)"/>
     <use xlink:href="#DejaVuSans-Bold-69" transform="translate(197.558594 0)"/>
     <use xlink:href="#DejaVuSans-Bold-64" transform="translate(231.835938 0)"/>
     <use xlink:href="#DejaVuSans-Bold-61" transform="translate(303.417969 0)"/>
     <use xlink:href="#DejaVuSans-Bold-64" transform="translate(370.898438 0)"/>
    </g>
    <!-- Operacional -->
    <g style="fill: #ffffff" transform="translate(46.424812 70.656609) scale(0.09 -0.09)">
     <defs>
      <path id="DejaVuSans-Bold-4f" d="M 2719 3878 
Q 2169 3878 1866 3472 
Q 1563 3066 1563 2328 
Q 1563 1594 1866 1187 
Q 2169 781 2719 781 
Q 3272 781 3575 1187 
Q 3878 1594 3878 2328 
Q 3878 3066 3575 3472 
Q 3272 3878 2719 3878 
z
M 2719 4750 
Q 3844 4750 4481 4106 
Q 5119 3463 5119 2328 
Q 5119 1197 4481 553 
Q 3844 -91 2719 -91 
Q 1597 -91 958 553 
Q 319 1197 319 2328 
Q 319 3463 958 4106 
Q 1597 4750 2719 4750 
z
" transform="scale(0.015625)"/>
      <path id="DejaVuSans-Bold-70" d="M 1656 506 
L 1656 -1331 
L 538 -1331 
L 538 3500 
L 1656 3500 
L 1656 2988 
Q 1888 3294 2169 3439 
Q 2450 3584 2816 3584 
Q 3463 3584 3878 3070 
Q 4294 2556 4294 1747 
Q 4294 938 3878 423 
Q 3463 -91 2816 -91 
Q 2450 -91 2169 54 
Q 1888 200 1656 506 
z
M 2400 2772 
Q 2041 2772 1848 2508 
Q 1656 2244 1656 1747 
Q 1656 1250 1848 986 
Q 2041 722 2400 722 
Q 2759 722 2948 984 
Q 3138 1247 3138 1747 
Q 3138 2247 2948 2509 
Q 2759 2772 2400 2772 
z
" transform="scale(0.015625)"/>
      <path id="DejaVuSans-Bold-65" d="M 4031 1759 
L 4031 1441 
L 1416 1441 
Q 1456 1047 1700 850 
Q 1944 653 2381 653 
Q 2734 653 3104 758 
Q 3475 863 3866 1075 
L 3866 213 
Q 3469 63 3072 -14 
Q 2675 -91 2278 -91 
Q 1328 -91 801 392 
Q 275 875 275 1747 
Q 275 2603 792 3093 
Q 1309 3584 2216 3584 
Q 3041 3584 3536 3087 
Q 4031 2591 4031 1759 
z
M 2881 2131 
Q 2881 2450 2695 2645 
Q 2509 2841 2209 2841 
Q 1884 2841 1681 2658 
Q 1478 2475 1428 2131 
L 2881 2131 
z
" transform="scale(0.015625)"/>
      <path id="DejaVuSans-Bold-72" d="M 3138 2547 
Q 2991 2616 2845 2648 
Q 2700 2681 2553 2681 
Q 2122 2681 1889 2404 
Q 1656 2128 1656 1613 
L 1656 0 
L 538 0 
L 538 3500 
L 1656 3500 
L 1656 2925 
Q 1872 3269 2151 3426 
Q 2431 3584 2822 3584 
Q 2878 3584 2943 3579 
Q 3009 3575 3134 3559 
L 3138 2547 
z
" transform="scale(0.015625)"/>
      <path id="DejaVuSans-Bold-63" d="M 3366 3391 
L 3366 2478 
Q 3138 2634 2908 2709 
Q 2678 2784 2431 2784 
Q 1963 2784 1702 2511 
Q 1441 2238 1441 1747 
Q 1441 1256 1702 982 
Q 1963 709 2431 709 
Q 2694 709 2930 787 
Q 3166 866 3366 1019 
L 3366 103 
Q 3103 6 2833 -42 
Q 2563 -91 2291 -91 
Q 1344 -91 809 395 
Q 275 881 275 1747 
Q 275 2613 809 3098 
Q 1344 3584 2291 3584 
Q 2566 3584 2833 3536 
Q 3100 3488 3366 3391 
z
" transform="scale(0.015625)"/>
      <path id="DejaVuSans-Bold-6f" d="M 2203 2784 
Q 1831 2784 1636 2517 
Q 1441 2250 1441 1747 
Q 1441 1244 1636 976 
Q 1831 709 2203 709 
Q 2569 709 2762 976 
Q 2956 1244 2956 1747 
Q 2956 2250 2762 2517 
Q 2569 2784 2203 2784 
z
M 2203 3584 
Q 3106 3584 3614 3096 
Q 4122 2609 4122 1747 
Q 4122 884 3614 396 
Q 3106 -91 2203 -91 
Q 1297 -91 786 396 
Q 275 884 275 1747 
Q 275 2609 786 3096 
Q 1297 3584 2203 3584 
z
" transform="scale(0.015625)"/>
      <path id="DejaVuSans-Bold-6e" d="M 4056 2131 
L 4056 0 
L 2931 0 
L 2931 347 
L 2931 1631 
Q 2931 2084 2911 2256 
Q 2891 2428 2841 2509 
Q 2775 2619 2662 2680 
Q 2550 2741 2406 2741 
Q 2056 2741 1856 2470 
Q 1656 2200 1656 1722 
L 1656 0 
L 538 0 
L 538 3500 
L 1656 3500 
L 1656 2988 
Q 1909 3294 2193 3439 
Q 2478 3584 2822 3584 
Q 3428 3584 3742 3212 
Q 4056 2841 4056 2131 
z
" transform="scale(0.015625)"/>
     </defs>
     <use xlink:href="#DejaVuSans-Bold-4f"/>
     <use xlink:href="#DejaVuSans-Bold-70" transform="translate(85.009766 0)"/>
     <use xlink:href="#DejaVuSans-Bold-65" transform="translate(156.591797 0)"/>
     <use xlink:href="#DejaVuSans-Bold-72" transform="translate(224.414062 0)"/>
     <use xlink:href="#DejaVuSans-Bold-61" transform="translate(273.730469 0)"/>
     <use xlink:href="#DejaVuSans-Bold-63" transform="translate(341.210938 0)"/>
     <use xlink:href="#DejaVuSans-Bold-69" transform="translate(400.488281 0)"/>
     <use xlink:href="#DejaVuSans-Bold-6f" transform="translate(434.765625 0)"/>
     <use xlink:href="#DejaVuSans-Bold-6e" transform="translate(503.466797 0)"/>
     <use xlink:href="#DejaVuSans-Bold-61" transform="translate(574.658203 0)"/>
     <use xlink:href="#DejaVuSans-Bold-6c" transform="translate(642.138672 0)"/>
    </g>
   </g>
   <g id="text_3">
    <!-- $701,300 -->
    <g style="fill: #ffffff" transform="translate(55.392469 80.28855) scale(0.09 -0.09)">
     <defs>
      <path id="DejaVuSans-24" d="M 2163 -941 
L 1850 -941 
L 1847 0 
Q 1519 6 1191 76 
Q 863 147 531 288 
L 531 850 
Q 850 650 1176 548 
Q 1503 447 1850 444 
L 1850 1869 
Q 1159 1981 845 2250 
Q 531 2519 531 2988 
Q 531 3497 872 3790 
Q 1213 4084 1850 4128 
L 1850 4863 
L 2163 4863 
L 2163 4138 
Q 2453 4125 2725 4076 
Q 2997 4028 3256 3944 
L 3256 3397 
Q 2997 3528 2723 3600 
Q 2450 3672 2163 3684 
L 2163 2350 
Q 2872 2241 3206 1959 
Q 3541 1678 3541 1191 
Q 3541 663 3186 358 
Q 2831 53 2163 6 
L 2163 -941 
z
M 1850 2406 
L 1850 3688 
Q 1488 3647 1297 3481 
Q 1106 3316 1106 3041 
Q 1106 2772 1282 2622 
Q 1459 2472 1850 2406 
z
M 2163 1806 
L 2163 453 
Q 2559 506 2761 678 
Q 2963 850 2963 1131 
Q 2963 1406 2770 1568 
Q 2578 1731 2163 1806 
z
" transform="scale(0.015625)"/>
      <path id="DejaVuSans-37" d="M 525 4666 
L 3525 4666 
L 3525 4397 
L 1831 0 
L 1172 0 
L 2766 4134 
L 525 4134 
L 525 4666 
z
" transform="scale(0.015625)"/>
      <path id="DejaVuSans-30" d="M 2034 4250 
Q 1547 4250 1301 3770 
Q 1056 3291 1056 2328 
Q 1056 1369 1301 889 
Q 1547 409 2034 409 
Q 2525 409 2770 889 
Q 3016 1369 3016 2328 
Q 3016 3291 2770 3770 
Q 2525 4250 2034 4250 
z
M 2034 4750 
Q 2819 4750 3233 4129 
Q 3647 3509 3647 2328 
Q 3647 1150 3233 529 
Q 2819 -91 2034 -91 
Q 1250 -91 836 529 
Q 422 1150 422 2328 
Q 422 3509 836 4129 
Q 1250 4750 2034 4750 
z
" transform="scale(0.015625)"/>
      <path id="DejaVuSans-31" d="M 794 531 
L 1825 531 
L 1825 4091 
L 703 3866 
L 703 4441 
L 1819 4666 
L 2450 4666 
L 2450 531 
L 3481 531 
L 3481 0 
L 794 0 
L 794 531 
z
" transform="scale(0.015625)"/>
      <path id="DejaVuSans-2c" d="M 750 794 
L 1409 794 
L 1409 256 
L 897 -744 
L 494 -744 
L 750 256 
L 750 794 
z
" transform="scale(0.015625)"/>
      <path id="DejaVuSans-33" d="M 2597 2516 
Q 3050 2419 3304 2112 
Q 3559 1806 3559 1356 
Q 3559 666 3084 287 
Q 2609 -91 1734 -91 
Q 1441 -91 1130 -33 
Q 819 25 488 141 
L 488 750 
Q 750 597 1062 519 
Q 1375 441 1716 441 
Q 2309 441 2620 675 
Q 2931 909 2931 1356 
Q 2931 1769 2642 2001 
Q 2353 2234 1838 2234 
L 1294 2234 
L 1294 2753 
L 1863 2753 
Q 2328 2753 2575 2939 
Q 2822 3125 2822 3475 
Q 2822 3834 2567 4026 
Q 2313 4219 1838 4219 
Q 1578 4219 1281 4162 
Q 984 4106 628 3988 
L 628 4550 
Q 988 4650 1302 4700 
Q 1616 4750 1894 4750 
Q 2613 4750 3031 4423 
Q 3450 4097 3450 3541 
Q 3450 3153 3228 2886 
Q 3006 2619 2597 2516 
z
" transform="scale(0.015625)"/>
     </defs>
     <use xlink:href="#DejaVuSans-24"/>
     <use xlink:href="#DejaVuSans-37" transform="translate(63.623047 0)"/>
     <use xlink:href="#DejaVuSans-30" transform="translate(127.246094 0)"/>
     <use xlink:href="#DejaVuSans-31" transform="translate(190.869141 0)"/>
     <use xlink:href="#DejaVuSans-2c" transform="translate(254.492188 0)"/>
     <use xlink:href="#DejaVuSans-33" transform="translate(286.279297 0)"/>
     <use xlink:href="#DejaVuSans-30" transform="translate(349.902344 0)"/>
     <use xlink:href="#DejaVuSans-30" transform="translate(413.525391 0)"/>
    </g>
   </g>
   <g id="text_4">
    <g id="patch_3">
     <path d="M 36.8045 205.124806 
L 116.9245 205.124806 
L 116.9245 120.582306 
L 36.8045 120.582306 
z
" style="fill: #f5989d; stroke: #f5989d; stroke-linejoin: miter"/>
    </g>
    <!-- - -->
    <g style="fill: #f5989d" transform="translate(75.2045 165.061056) scale(0.08 -0.08)">
     <use xlink:href="#DejaVuSans-Bold-2d"/>
    </g>
   </g>
   <g id="text_5">
    <!-- Ingresos -->
    <g style="fill: #ffffff" transform="translate(55.046531 161.828081) scale(0.09 -0.09)">
     <defs>
      <path id="DejaVuSans-Bold-49" d="M 588 4666 
L 1791 4666 
L 1791 0 
L 588 0 
L 588 4666 
z
" transform="scale(0.015625)"/>
      <path id="DejaVuSans-Bold-67" d="M 2919 594 
Q 2688 288 2409 144 
Q 2131 0 1766 0 
Q 1125 0 706 504 
Q 288 1009 288 1791 
Q 288 2575 706 3076 
Q 1125 3578 1766 3578 
Q 2131 3578 2409 3434 
Q 2688 3291 2919 2981 
L 2919 3500 
L 4044 3500 
L 4044 353 
Q 4044 -491 3511 -936 
Q 2978 -1381 1966 -1381 
Q 1638 -1381 1331 -1331 
Q 1025 -1281 716 -1178 
L 716 -306 
Q 1009 -475 1290 -558 
Q 1572 -641 1856 -641 
Q 2406 -641 2662 -400 
Q 2919 -159 2919 353 
L 2919 594 
z
M 2181 2772 
Q 1834 2772 1640 2515 
Q 1447 2259 1447 1791 
Q 1447 1309 1634 1061 
Q 1822 813 2181 813 
Q 2531 813 2725 1069 
Q 2919 1325 2919 1791 
Q 2919 2259 2725 2515 
Q 2531 2772 2181 2772 
z
" transform="scale(0.015625)"/>
      <path id="DejaVuSans-Bold-73" d="M 3272 3391 
L 3272 2541 
Q 2913 2691 2578 2766 
Q 2244 2841 1947 2841 
Q 1628 2841 1473 2761 
Q 1319 2681 1319 2516 
Q 1319 2381 1436 2309 
Q 1553 2238 1856 2203 
L 2053 2175 
Q 2913 2066 3209 1816 
Q 3506 1566 3506 1031 
Q 3506 472 3093 190 
Q 2681 -91 1863 -91 
Q 1516 -91 1145 -36 
Q 775 19 384 128 
L 384 978 
Q 719 816 1070 734 
Q 1422 653 1784 653 
Q 2113 653 2278 743 
Q 2444 834 2444 1013 
Q 2444 1163 2330 1236 
Q 2216 1309 1875 1350 
L 1678 1375 
Q 931 1469 631 1722 
Q 331 1975 331 2491 
Q 331 3047 712 3315 
Q 1094 3584 1881 3584 
Q 2191 3584 2531 3537 
Q 2872 3491 3272 3391 
z
" transform="scale(0.015625)"/>
     </defs>
     <use xlink:href="#DejaVuSans-Bold-49"/>
     <use xlink:href="#DejaVuSans-Bold-6e" transform="translate(37.207031 0)"/>
     <use xlink:href="#DejaVuSans-Bold-67" transform="translate(108.398438 0)"/>
     <use xlink:href="#DejaVuSans-Bold-72" transform="translate(179.980469 0)"/>
     <use xlink:href="#DejaVuSans-Bold-65" transform="translate(229.296875 0)"/>
     <use xlink:href="#DejaVuSans-Bold-73" transform="translate(297.119141 0)"/>
     <use xlink:href="#DejaVuSans-Bold-6f" transform="translate(356.640625 0)"/>
     <use xlink:href="#DejaVuSans-Bold-73" transform="translate(425.341797 0)"/>
    </g>
   </g>
   <g id="text_6">
    <!-- $6,612,000 -->
    <g style="fill: #ffffff" transform="translate(51.099187 176.56935) scale(0.09 -0.09)">
     <defs>
      <path id="DejaVuSans-36" d="M 2113 2584 
Q 1688 2584 1439 2293 
Q 1191 2003 1191 1497 
Q 1191 994 1439 701 
Q 1688 409 2113 409 
Q 2538 409 2786 701 
Q 3034 994 3034 1497 
Q 3034 2003 2786 2293 
Q 2538 2584 2113 2584 
z
M 3366 4563 
L 3366 3988 
Q 3128 4100 2886 4159 
Q 2644 4219 2406 4219 
Q 1781 4219 1451 3797 
Q 1122 3375 1075 2522 
Q 1259 2794 1537 2939 
Q 1816 3084 2150 3084 
Q 2853 3084 3261 2657 
Q 3669 2231 3669 1497 
Q 3669 778 3244 343 
Q 2819 -91 2113 -91 
Q 1303 -91 875 529 
Q 447 1150 447 2328 
Q 447 3434 972 4092 
Q 1497 4750 2381 4750 
Q 2619 4750 2861 4703 
Q 3103 4656 3366 4563 
z
" transform="scale(0.015625)"/>
      <path id="DejaVuSans-32" d="M 1228 531 
L 3431 531 
L 3431 0 
L 469 0 
L 469 531 
Q 828 903 1448 1529 
Q 2069 2156 2228 2338 
Q 2531 2678 2651 2914 
Q 2772 3150 2772 3378 
Q 2772 3750 2511 3984 
Q 2250 4219 1831 4219 
Q 1534 4219 1204 4116 
Q 875 4013 500 3803 
L 500 4441 
Q 881 4594 1212 4672 
Q 1544 4750 1819 4750 
Q 2544 4750 2975 4387 
Q 3406 4025 3406 3419 
Q 3406 3131 3298 2873 
Q 3191 2616 2906 2266 
Q 2828 2175 2409 1742 
Q 1991 1309 1228 531 
z
" transform="scale(0.015625)"/>
     </defs>
     <use xlink:href="#DejaVuSans-24"/>
     <use xlink:href="#DejaVuSans-36" transform="translate(63.623047 0)"/>
     <use xlink:href="#DejaVuSans-2c" transform="translate(127.246094 0)"/>
     <use xlink:href="#DejaVuSans-36" transform="translate(159.033203 0)"/>
     <use xlink:href="#DejaVuSans-31" transform="translate(222.65625 0)"/>
     <use xlink:href="#DejaVuSans-32" transform="translate(286.279297 0)"/>
     <use xlink:href="#DejaVuSans-2c" transform="translate(349.902344 0)"/>
     <use xlink:href="#DejaVuSans-30" transform="translate(381.689453 0)"/>
     <use xlink:href="#DejaVuSans-30" transform="translate(445.3125 0)"/>
     <use xlink:href="#DejaVuSans-30" transform="translate(508.935547 0)"/>
    </g>
   </g>
   <g id="text_7">
    <g id="patch_4">
     <path d="M 259.7309 108.844006 
L 339.8509 108.844006 
L 339.8509 24.301506 
L 259.7309 24.301506 
z
" style="fill: #f5989d; stroke: #f5989d; stroke-linejoin: miter"/>
    </g>
    <!-- - -->
    <g style="fill: #f5989d" transform="translate(298.1309 68.780256) scale(0.08 -0.08)">
     <use xlink:href="#DejaVuSans-Bold-2d"/>
    </g>
   </g>
   <g id="text_8">
    <!-- Ingresos -->
    <g style="fill: #ffffff" transform="translate(277.972931 65.547281) scale(0.09 -0.09)">
     <use xlink:href="#DejaVuSans-Bold-49"/>
     <use xlink:href="#DejaVuSans-Bold-6e" transform="translate(37.207031 0)"/>
     <use xlink:href="#DejaVuSans-Bold-67" transform="translate(108.398438 0)"/>
     <use xlink:href="#DejaVuSans-Bold-72" transform="translate(179.980469 0)"/>
     <use xlink:href="#DejaVuSans-Bold-65" transform="translate(229.296875 0)"/>
     <use xlink:href="#DejaVuSans-Bold-73" transform="translate(297.119141 0)"/>
     <use xlink:href="#DejaVuSans-Bold-6f" transform="translate(356.640625 0)"/>
     <use xlink:href="#DejaVuSans-Bold-73" transform="translate(425.341797 0)"/>
    </g>
   </g>
   <g id="text_9">
    <!-- $6,612,000 -->
    <g style="fill: #ffffff" transform="translate(274.025587 80.28855) scale(0.09 -0.09)">
     <use xlink:href="#DejaVuSans-24"/>
     <use xlink:href="#DejaVuSans-36" transform="translate(63.623047 0)"/>
     <use xlink:href="#DejaVuSans-2c" transform="translate(127.246094 0)"/>
     <use xlink:href="#DejaVuSans-36" transform="translate(159.033203 0)"/>
     <use xlink:href="#DejaVuSans-31" transform="translate(222.65625 0)"/>
     <use xlink:href="#DejaVuSans-32" transform="translate(286.279297 0)"/>
     <use xlink:href="#DejaVuSans-2c" transform="translate(349.902344 0)"/>
     <use xlink:href="#DejaVuSans-30" transform="translate(381.689453 0)"/>
     <use xlink:href="#DejaVuSans-30" transform="translate(445.3125 0)"/>
     <use xlink:href="#DejaVuSans-30" transform="translate(508.935547 0)"/>
    </g>
   </g>
   <g id="text_10">
    <g id="patch_5">
     <path d="M 210.96575 205.124806 
L 291.08575 205.124806 
L 291.08575 120.582306 
L 210.96575 120.582306 
z
" style="fill: #ea4c89; stroke: #ea4c89; stroke-linejoin: miter"/>
    </g>
    <!-- - -->
    <g style="fill: #ea4c89" transform="translate(249.36575 165.061056) scale(0.08 -0.08)">
     <use xlink:href="#DejaVuSans-Bold-2d"/>
    </g>
   </g>
   <g id="text_11">
    <!-- Capital de -->
    <g style="fill: #ffffff" transform="translate(225.352547 156.824222) scale(0.09 -0.09)">
     <defs>
      <path id="DejaVuSans-Bold-43" d="M 4288 256 
Q 3956 84 3597 -3 
Q 3238 -91 2847 -91 
Q 1681 -91 1000 561 
Q 319 1213 319 2328 
Q 319 3447 1000 4098 
Q 1681 4750 2847 4750 
Q 3238 4750 3597 4662 
Q 3956 4575 4288 4403 
L 4288 3438 
Q 3953 3666 3628 3772 
Q 3303 3878 2944 3878 
Q 2300 3878 1931 3465 
Q 1563 3053 1563 2328 
Q 1563 1606 1931 1193 
Q 2300 781 2944 781 
Q 3303 781 3628 887 
Q 3953 994 4288 1222 
L 4288 256 
z
" transform="scale(0.015625)"/>
      <path id="DejaVuSans-Bold-20" transform="scale(0.015625)"/>
     </defs>
     <use xlink:href="#DejaVuSans-Bold-43"/>
     <use xlink:href="#DejaVuSans-Bold-61" transform="translate(73.388672 0)"/>
     <use xlink:href="#DejaVuSans-Bold-70" transform="translate(140.869141 0)"/>
     <use xlink:href="#DejaVuSans-Bold-69" transform="translate(212.451172 0)"/>
     <use xlink:href="#DejaVuSans-Bold-74" transform="translate(246.728516 0)"/>
     <use xlink:href="#DejaVuSans-Bold-61" transform="translate(294.53125 0)"/>
     <use xlink:href="#DejaVuSans-Bold-6c" transform="translate(362.011719 0)"/>
     <use xlink:href="#DejaVuSans-Bold-20" transform="translate(396.289062 0)"/>
     <use xlink:href="#DejaVuSans-Bold-64" transform="translate(431.103516 0)"/>
     <use xlink:href="#DejaVuSans-Bold-65" transform="translate(502.685547 0)"/>
    </g>
    <!-- Trabajo -->
    <g style="fill: #ffffff" transform="translate(232.302937 166.902253) scale(0.09 -0.09)">
     <defs>
      <path id="DejaVuSans-Bold-54" d="M 31 4666 
L 4331 4666 
L 4331 3756 
L 2784 3756 
L 2784 0 
L 1581 0 
L 1581 3756 
L 31 3756 
L 31 4666 
z
" transform="scale(0.015625)"/>
      <path id="DejaVuSans-Bold-62" d="M 2400 722 
Q 2759 722 2948 984 
Q 3138 1247 3138 1747 
Q 3138 2247 2948 2509 
Q 2759 2772 2400 2772 
Q 2041 2772 1848 2508 
Q 1656 2244 1656 1747 
Q 1656 1250 1848 986 
Q 2041 722 2400 722 
z
M 1656 2988 
Q 1888 3294 2169 3439 
Q 2450 3584 2816 3584 
Q 3463 3584 3878 3070 
Q 4294 2556 4294 1747 
Q 4294 938 3878 423 
Q 3463 -91 2816 -91 
Q 2450 -91 2169 54 
Q 1888 200 1656 506 
L 1656 0 
L 538 0 
L 538 4863 
L 1656 4863 
L 1656 2988 
z
" transform="scale(0.015625)"/>
      <path id="DejaVuSans-Bold-6a" d="M 538 3500 
L 1656 3500 
L 1656 63 
Q 1656 -641 1318 -1011 
Q 981 -1381 341 -1381 
L -213 -1381 
L -213 -647 
L -19 -647 
Q 300 -647 419 -503 
Q 538 -359 538 63 
L 538 3500 
z
M 538 4863 
L 1656 4863 
L 1656 3950 
L 538 3950 
L 538 4863 
z
" transform="scale(0.015625)"/>
     </defs>
     <use xlink:href="#DejaVuSans-Bold-54"/>
     <use xlink:href="#DejaVuSans-Bold-72" transform="translate(57.212891 0)"/>
     <use xlink:href="#DejaVuSans-Bold-61" transform="translate(106.529297 0)"/>
     <use xlink:href="#DejaVuSans-Bold-62" transform="translate(174.009766 0)"/>
     <use xlink:href="#DejaVuSans-Bold-61" transform="translate(245.591797 0)"/>
     <use xlink:href="#DejaVuSans-Bold-6a" transform="translate(313.072266 0)"/>
     <use xlink:href="#DejaVuSans-Bold-6f" transform="translate(347.349609 0)"/>
    </g>
   </g>
   <g id="text_12">
    <!-- $2,403,000 -->
    <g style="fill: #ffffff" transform="translate(225.260437 176.56935) scale(0.09 -0.09)">
     <defs>
      <path id="DejaVuSans-34" d="M 2419 4116 
L 825 1625 
L 2419 1625 
L 2419 4116 
z
M 2253 4666 
L 3047 4666 
L 3047 1625 
L 3713 1625 
L 3713 1100 
L 3047 1100 
L 3047 0 
L 2419 0 
L 2419 1100 
L 313 1100 
L 313 1709 
L 2253 4666 
z
" transform="scale(0.015625)"/>
     </defs>
     <use xlink:href="#DejaVuSans-24"/>
     <use xlink:href="#DejaVuSans-32" transform="translate(63.623047 0)"/>
     <use xlink:href="#DejaVuSans-2c" transform="translate(127.246094 0)"/>
     <use xlink:href="#DejaVuSans-34" transform="translate(159.033203 0)"/>
     <use xlink:href="#DejaVuSans-30" transform="translate(222.65625 0)"/>
     <use xlink:href="#DejaVuSans-33" transform="translate(286.279297 0)"/>
     <use xlink:href="#DejaVuSans-2c" transform="translate(349.902344 0)"/>
     <use xlink:href="#DejaVuSans-30" transform="translate(381.689453 0)"/>
     <use xlink:href="#DejaVuSans-30" transform="translate(445.3125 0)"/>
     <use xlink:href="#DejaVuSans-30" transform="translate(508.935547 0)"/>
    </g>
   </g>
   <g id="text_13">
    <g id="patch_6">
     <path d="M 315.4625 205.124806 
L 395.5825 205.124806 
L 395.5825 120.582306 
L 315.4625 120.582306 
z
" style="fill: #9b2fae; stroke: #9b2fae; stroke-linejoin: miter"/>
    </g>
    <!-- - -->
    <g style="fill: #9b2fae" transform="translate(353.8625 165.061056) scale(0.08 -0.08)">
     <use xlink:href="#DejaVuSans-Bold-2d"/>
    </g>
   </g>
   <g id="text_14">
    <!-- Otro Capital -->
    <g style="fill: #ffffff" transform="translate(324.835312 161.898394) scale(0.09 -0.09)">
     <use xlink:href="#DejaVuSans-Bold-4f"/>
     <use xlink:href="#DejaVuSans-Bold-74" transform="translate(85.009766 0)"/>
     <use xlink:href="#DejaVuSans-Bold-72" transform="translate(132.8125 0)"/>
     <use xlink:href="#DejaVuSans-Bold-6f" transform="translate(182.128906 0)"/>
     <use xlink:href="#DejaVuSans-Bold-20" transform="translate(250.830078 0)"/>
     <use xlink:href="#DejaVuSans-Bold-43" transform="translate(285.644531 0)"/>
     <use xlink:href="#DejaVuSans-Bold-61" transform="translate(359.033203 0)"/>
     <use xlink:href="#DejaVuSans-Bold-70" transform="translate(426.513672 0)"/>
     <use xlink:href="#DejaVuSans-Bold-69" transform="translate(498.095703 0)"/>
     <use xlink:href="#DejaVuSans-Bold-74" transform="translate(532.373047 0)"/>
     <use xlink:href="#DejaVuSans-Bold-61" transform="translate(580.175781 0)"/>
     <use xlink:href="#DejaVuSans-Bold-6c" transform="translate(647.65625 0)"/>
    </g>
   </g>
   <g id="text_15">
    <!-- $1,750,000 -->
    <g style="fill: #ffffff" transform="translate(329.757187 176.56935) scale(0.09 -0.09)">
     <defs>
      <path id="DejaVuSans-35" d="M 691 4666 
L 3169 4666 
L 3169 4134 
L 1269 4134 
L 1269 2991 
Q 1406 3038 1543 3061 
Q 1681 3084 1819 3084 
Q 2600 3084 3056 2656 
Q 3513 2228 3513 1497 
Q 3513 744 3044 326 
Q 2575 -91 1722 -91 
Q 1428 -91 1123 -41 
Q 819 9 494 109 
L 494 744 
Q 775 591 1075 516 
Q 1375 441 1709 441 
Q 2250 441 2565 725 
Q 2881 1009 2881 1497 
Q 2881 1984 2565 2268 
Q 2250 2553 1709 2553 
Q 1456 2553 1204 2497 
Q 953 2441 691 2322 
L 691 4666 
z
" transform="scale(0.015625)"/>
     </defs>
     <use xlink:href="#DejaVuSans-24"/>
     <use xlink:href="#DejaVuSans-31" transform="translate(63.623047 0)"/>
     <use xlink:href="#DejaVuSans-2c" transform="translate(127.246094 0)"/>
     <use xlink:href="#DejaVuSans-37" transform="translate(159.033203 0)"/>
     <use xlink:href="#DejaVuSans-35" transform="translate(222.65625 0)"/>
     <use xlink:href="#DejaVuSans-30" transform="translate(286.279297 0)"/>
     <use xlink:href="#DejaVuSans-2c" transform="translate(349.902344 0)"/>
     <use xlink:href="#DejaVuSans-30" transform="translate(381.689453 0)"/>
     <use xlink:href="#DejaVuSans-30" transform="translate(445.3125 0)"/>
     <use xlink:href="#DejaVuSans-30" transform="translate(508.935547 0)"/>
    </g>
   </g>
   <g id="text_16">
    <g id="patch_7">
     <path d="M 454.7915 108.844006 
L 534.9115 108.844006 
L 534.9115 24.301506 
L 454.7915 24.301506 
z
" style="fill: #4c0070; stroke: #4c0070; stroke-linejoin: miter"/>
    </g>
    <!-- - -->
    <g style="fill: #4c0070" transform="translate(493.1915 68.780256) scale(0.08 -0.08)">
     <use xlink:href="#DejaVuSans-Bold-2d"/>
    </g>
   </g>
   <g id="text_17">
    <!-- Utilidad -->
    <g style="fill: #ffffff" transform="translate(474.939703 60.578578) scale(0.09 -0.09)">
     <use xlink:href="#DejaVuSans-Bold-55"/>
     <use xlink:href="#DejaVuSans-Bold-74" transform="translate(81.201172 0)"/>
     <use xlink:href="#DejaVuSans-Bold-69" transform="translate(129.003906 0)"/>
     <use xlink:href="#DejaVuSans-Bold-6c" transform="translate(163.28125 0)"/>
     <use xlink:href="#DejaVuSans-Bold-69" transform="translate(197.558594 0)"/>
     <use xlink:href="#DejaVuSans-Bold-64" transform="translate(231.835938 0)"/>
     <use xlink:href="#DejaVuSans-Bold-61" transform="translate(303.417969 0)"/>
     <use xlink:href="#DejaVuSans-Bold-64" transform="translate(370.898438 0)"/>
    </g>
    <!-- Operacional -->
    <g style="fill: #ffffff" transform="translate(464.411812 70.656609) scale(0.09 -0.09)">
     <use xlink:href="#DejaVuSans-Bold-4f"/>
     <use xlink:href="#DejaVuSans-Bold-70" transform="translate(85.009766 0)"/>
     <use xlink:href="#DejaVuSans-Bold-65" transform="translate(156.591797 0)"/>
     <use xlink:href="#DejaVuSans-Bold-72" transform="translate(224.414062 0)"/>
     <use xlink:href="#DejaVuSans-Bold-61" transform="translate(273.730469 0)"/>
     <use xlink:href="#DejaVuSans-Bold-63" transform="translate(341.210938 0)"/>
     <use xlink:href="#DejaVuSans-Bold-69" transform="translate(400.488281 0)"/>
     <use xlink:href="#DejaVuSans-Bold-6f" transform="translate(434.765625 0)"/>
     <use xlink:href="#DejaVuSans-Bold-6e" transform="translate(503.466797 0)"/>
     <use xlink:href="#DejaVuSans-Bold-61" transform="translate(574.658203 0)"/>
     <use xlink:href="#DejaVuSans-Bold-6c" transform="translate(642.138672 0)"/>
    </g>
   </g>
   <g id="text_18">
    <!-- $701,300 -->
    <g style="fill: #ffffff" transform="translate(473.379469 80.28855) scale(0.09 -0.09)">
     <use xlink:href="#DejaVuSans-24"/>
     <use xlink:href="#DejaVuSans-37" transform="translate(63.623047 0)"/>
     <use xlink:href="#DejaVuSans-30" transform="translate(127.246094 0)"/>
     <use xlink:href="#DejaVuSans-31" transform="translate(190.869141 0)"/>
     <use xlink:href="#DejaVuSans-2c" transform="translate(254.492188 0)"/>
     <use xlink:href="#DejaVuSans-33" transform="translate(286.279297 0)"/>
     <use xlink:href="#DejaVuSans-30" transform="translate(349.902344 0)"/>
     <use xlink:href="#DejaVuSans-30" transform="translate(413.525391 0)"/>
    </g>
   </g>
   <g id="text_19">
    <g id="patch_8">
     <path d="M 454.7915 205.124806 
L 534.9115 205.124806 
L 534.9115 120.582306 
L 454.7915 120.582306 
z
" style="fill: #6c3483; stroke: #6c3483; stroke-linejoin: miter"/>
    </g>
    <!-- - -->
    <g style="fill: #6c3483" transform="translate(493.1915 165.061056) scale(0.08 -0.08)">
     <use xlink:href="#DejaVuSans-Bold-2d"/>
    </g>
   </g>
   <g id="text_20">
    <!-- Activos Oper. -->
    <g style="fill: #ffffff" transform="translate(461.351812 156.859378) scale(0.09 -0.09)">
     <defs>
      <path id="DejaVuSans-Bold-41" d="M 3419 850 
L 1538 850 
L 1241 0 
L 31 0 
L 1759 4666 
L 3194 4666 
L 4922 0 
L 3713 0 
L 3419 850 
z
M 1838 1716 
L 3116 1716 
L 2478 3572 
L 1838 1716 
z
" transform="scale(0.015625)"/>
      <path id="DejaVuSans-Bold-76" d="M 97 3500 
L 1216 3500 
L 2088 1081 
L 2956 3500 
L 4078 3500 
L 2700 0 
L 1472 0 
L 97 3500 
z
" transform="scale(0.015625)"/>
      <path id="DejaVuSans-Bold-2e" d="M 653 1209 
L 1778 1209 
L 1778 0 
L 653 0 
L 653 1209 
z
" transform="scale(0.015625)"/>
     </defs>
     <use xlink:href="#DejaVuSans-Bold-41"/>
     <use xlink:href="#DejaVuSans-Bold-63" transform="translate(77.392578 0)"/>
     <use xlink:href="#DejaVuSans-Bold-74" transform="translate(136.669922 0)"/>
     <use xlink:href="#DejaVuSans-Bold-69" transform="translate(184.472656 0)"/>
     <use xlink:href="#DejaVuSans-Bold-76" transform="translate(218.75 0)"/>
     <use xlink:href="#DejaVuSans-Bold-6f" transform="translate(283.935547 0)"/>
     <use xlink:href="#DejaVuSans-Bold-73" transform="translate(352.636719 0)"/>
     <use xlink:href="#DejaVuSans-Bold-20" transform="translate(412.158203 0)"/>
     <use xlink:href="#DejaVuSans-Bold-4f" transform="translate(446.972656 0)"/>
     <use xlink:href="#DejaVuSans-Bold-70" transform="translate(531.982422 0)"/>
     <use xlink:href="#DejaVuSans-Bold-65" transform="translate(603.564453 0)"/>
     <use xlink:href="#DejaVuSans-Bold-72" transform="translate(671.386719 0)"/>
     <use xlink:href="#DejaVuSans-Bold-2e" transform="translate(706.453125 0)"/>
    </g>
    <!-- Netos -->
    <g style="fill: #ffffff" transform="translate(480.112594 166.937409) scale(0.09 -0.09)">
     <defs>
      <path id="DejaVuSans-Bold-4e" d="M 588 4666 
L 1931 4666 
L 3628 1466 
L 3628 4666 
L 4769 4666 
L 4769 0 
L 3425 0 
L 1728 3200 
L 1728 0 
L 588 0 
L 588 4666 
z
" transform="scale(0.015625)"/>
     </defs>
     <use xlink:href="#DejaVuSans-Bold-4e"/>
     <use xlink:href="#DejaVuSans-Bold-65" transform="translate(83.691406 0)"/>
     <use xlink:href="#DejaVuSans-Bold-74" transform="translate(151.513672 0)"/>
     <use xlink:href="#DejaVuSans-Bold-6f" transform="translate(199.316406 0)"/>
     <use xlink:href="#DejaVuSans-Bold-73" transform="translate(268.017578 0)"/>
    </g>
   </g>
   <g id="text_21">
    <!-- $4,153,000 -->
    <g style="fill: #ffffff" transform="translate(469.086187 176.56935) scale(0.09 -0.09)">
     <use xlink:href="#DejaVuSans-24"/>
     <use xlink:href="#DejaVuSans-34" transform="translate(63.623047 0)"/>
     <use xlink:href="#DejaVuSans-2c" transform="translate(127.246094 0)"/>
     <use xlink:href="#DejaVuSans-31" transform="translate(159.033203 0)"/>
     <use xlink:href="#DejaVuSans-35" transform="translate(222.65625 0)"/>
     <use xlink:href="#DejaVuSans-33" transform="translate(286.279297 0)"/>
     <use xlink:href="#DejaVuSans-2c" transform="translate(349.902344 0)"/>
     <use xlink:href="#DejaVuSans-30" transform="translate(381.689453 0)"/>
     <use xlink:href="#DejaVuSans-30" transform="translate(445.3125 0)"/>
     <use xlink:href="#DejaVuSans-30" transform="translate(508.935547 0)"/>
    </g>
   </g>
   <g id="text_22">
    <!-- × -->
    <g style="fill: #808080" transform="translate(155.565438 120.231906) scale(0.2 -0.2)">
     <defs>
      <path id="DejaVuSans-Bold-d7" d="M 4563 3359 
L 3206 2003 
L 4563 653 
L 4038 128 
L 2681 1478 
L 1325 128 
L 800 653 
L 2156 2003 
L 800 3359 
L 1325 3884 
L 2681 2528 
L 4038 3884 
L 4563 3359 
z
" transform="scale(0.015625)"/>
     </defs>
     <use xlink:href="#DejaVuSans-Bold-d7"/>
    </g>
   </g>
   <g id="text_23">
    <!-- + -->
    <g style="fill: #808080" transform="translate(291.411212 168.372306) scale(0.2 -0.2)">
     <defs>
      <path id="DejaVuSans-Bold-2b" d="M 3053 4013 
L 3053 2375 
L 4684 2375 
L 4684 1638 
L 3053 1638 
L 3053 0 
L 2309 0 
L 2309 1638 
L 678 1638 
L 678 2375 
L 2309 2375 
L 2309 4013 
L 3053 4013 
z
" transform="scale(0.015625)"/>
     </defs>
     <use xlink:href="#DejaVuSans-Bold-2b"/>
    </g>
   </g>
   <g id="text_24">
    <!-- = -->
    <g style="fill: #808080" transform="translate(430.740212 120.231906) scale(0.2 -0.2)">
     <defs>
      <path id="DejaVuSans-Bold-3d" d="M 678 3084 
L 4684 3084 
L 4684 2350 
L 678 2350 
L 678 3084 
z
M 678 1663 
L 4684 1663 
L 4684 922 
L 678 922 
L 678 1663 
z
" transform="scale(0.015625)"/>
     </defs>
     <use xlink:href="#DejaVuSans-Bold-3d"/>
    </g>
   </g>
   <g id="text_25">
    <!-- = -->
    <g style="fill: #808080" transform="translate(563.102762 120.231906) scale(0.2 -0.2)">
     <use xlink:href="#DejaVuSans-Bold-3d"/>
    </g>
   </g>
   <g id="text_26">
    <!-- Capítulo 1 -->
    <g style="fill: #808080" transform="translate(51.075281 220.534594) scale(0.09 -0.09)">
     <defs>
      <path id="DejaVuSans-Bold-ed" d="M 538 3500 
L 1656 3500 
L 1656 0 
L 538 0 
L 538 3500 
z
M 1590 5119 
L 2474 5119 
L 1321 3944 
L 709 3944 
L 1590 5119 
z
" transform="scale(0.015625)"/>
      <path id="DejaVuSans-Bold-75" d="M 500 1363 
L 500 3500 
L 1625 3500 
L 1625 3150 
Q 1625 2866 1622 2436 
Q 1619 2006 1619 1863 
Q 1619 1441 1641 1255 
Q 1663 1069 1716 984 
Q 1784 875 1895 815 
Q 2006 756 2150 756 
Q 2500 756 2700 1025 
Q 2900 1294 2900 1772 
L 2900 3500 
L 4019 3500 
L 4019 0 
L 2900 0 
L 2900 506 
Q 2647 200 2364 54 
Q 2081 -91 1741 -91 
Q 1134 -91 817 281 
Q 500 653 500 1363 
z
" transform="scale(0.015625)"/>
      <path id="DejaVuSans-Bold-31" d="M 750 831 
L 1813 831 
L 1813 3847 
L 722 3622 
L 722 4441 
L 1806 4666 
L 2950 4666 
L 2950 831 
L 4013 831 
L 4013 0 
L 750 0 
L 750 831 
z
" transform="scale(0.015625)"/>
     </defs>
     <use xlink:href="#DejaVuSans-Bold-43"/>
     <use xlink:href="#DejaVuSans-Bold-61" transform="translate(73.388672 0)"/>
     <use xlink:href="#DejaVuSans-Bold-70" transform="translate(140.869141 0)"/>
     <use xlink:href="#DejaVuSans-Bold-ed" transform="translate(212.451172 0)"/>
     <use xlink:href="#DejaVuSans-Bold-74" transform="translate(246.728516 0)"/>
     <use xlink:href="#DejaVuSans-Bold-75" transform="translate(294.53125 0)"/>
     <use xlink:href="#DejaVuSans-Bold-6c" transform="translate(365.722656 0)"/>
     <use xlink:href="#DejaVuSans-Bold-6f" transform="translate(400 0)"/>
     <use xlink:href="#DejaVuSans-Bold-20" transform="translate(468.701172 0)"/>
     <use xlink:href="#DejaVuSans-Bold-31" transform="translate(503.515625 0)"/>
    </g>
   </g>
   <g id="text_27">
    <!-- Capítulo 1 -->
    <g style="fill: #808080" transform="translate(225.236531 220.534594) scale(0.09 -0.09)">
     <use xlink:href="#DejaVuSans-Bold-43"/>
     <use xlink:href="#DejaVuSans-Bold-61" transform="translate(73.388672 0)"/>
     <use xlink:href="#DejaVuSans-Bold-70" transform="translate(140.869141 0)"/>
     <use xlink:href="#DejaVuSans-Bold-ed" transform="translate(212.451172 0)"/>
     <use xlink:href="#DejaVuSans-Bold-74" transform="translate(246.728516 0)"/>
     <use xlink:href="#DejaVuSans-Bold-75" transform="translate(294.53125 0)"/>
     <use xlink:href="#DejaVuSans-Bold-6c" transform="translate(365.722656 0)"/>
     <use xlink:href="#DejaVuSans-Bold-6f" transform="translate(400 0)"/>
     <use xlink:href="#DejaVuSans-Bold-20" transform="translate(468.701172 0)"/>
     <use xlink:href="#DejaVuSans-Bold-31" transform="translate(503.515625 0)"/>
    </g>
   </g>
   <g id="text_28">
    <!-- Capítulo 3 -->
    <g style="fill: #808080" transform="translate(329.733281 220.534594) scale(0.09 -0.09)">
     <defs>
      <path id="DejaVuSans-Bold-33" d="M 2981 2516 
Q 3453 2394 3698 2092 
Q 3944 1791 3944 1325 
Q 3944 631 3412 270 
Q 2881 -91 1863 -91 
Q 1503 -91 1142 -33 
Q 781 25 428 141 
L 428 1069 
Q 766 900 1098 814 
Q 1431 728 1753 728 
Q 2231 728 2486 893 
Q 2741 1059 2741 1369 
Q 2741 1688 2480 1852 
Q 2219 2016 1709 2016 
L 1228 2016 
L 1228 2791 
L 1734 2791 
Q 2188 2791 2409 2933 
Q 2631 3075 2631 3366 
Q 2631 3634 2415 3781 
Q 2200 3928 1806 3928 
Q 1516 3928 1219 3862 
Q 922 3797 628 3669 
L 628 4550 
Q 984 4650 1334 4700 
Q 1684 4750 2022 4750 
Q 2931 4750 3382 4451 
Q 3834 4153 3834 3553 
Q 3834 3144 3618 2883 
Q 3403 2622 2981 2516 
z
" transform="scale(0.015625)"/>
     </defs>
     <use xlink:href="#DejaVuSans-Bold-43"/>
     <use xlink:href="#DejaVuSans-Bold-61" transform="translate(73.388672 0)"/>
     <use xlink:href="#DejaVuSans-Bold-70" transform="translate(140.869141 0)"/>
     <use xlink:href="#DejaVuSans-Bold-ed" transform="translate(212.451172 0)"/>
     <use xlink:href="#DejaVuSans-Bold-74" transform="translate(246.728516 0)"/>
     <use xlink:href="#DejaVuSans-Bold-75" transform="translate(294.53125 0)"/>
     <use xlink:href="#DejaVuSans-Bold-6c" transform="translate(365.722656 0)"/>
     <use xlink:href="#DejaVuSans-Bold-6f" transform="translate(400 0)"/>
     <use xlink:href="#DejaVuSans-Bold-20" transform="translate(468.701172 0)"/>
     <use xlink:href="#DejaVuSans-Bold-33" transform="translate(503.515625 0)"/>
    </g>
   </g>
   <g id="text_29">
    <!-- Utilidad Operacional % -->
    <g style="fill: #808080" transform="translate(18.87075 14.038594) scale(0.09 -0.09)">
     <defs>
      <path id="DejaVuSans-Bold-25" d="M 4959 1925 
Q 4738 1925 4616 1733 
Q 4494 1541 4494 1184 
Q 4494 825 4614 633 
Q 4734 441 4959 441 
Q 5184 441 5303 633 
Q 5422 825 5422 1184 
Q 5422 1541 5301 1733 
Q 5181 1925 4959 1925 
z
M 4959 2450 
Q 5541 2450 5875 2112 
Q 6209 1775 6209 1184 
Q 6209 594 5875 251 
Q 5541 -91 4959 -91 
Q 4378 -91 4042 251 
Q 3706 594 3706 1184 
Q 3706 1772 4042 2111 
Q 4378 2450 4959 2450 
z
M 2094 -91 
L 1403 -91 
L 4319 4750 
L 5013 4750 
L 2094 -91 
z
M 1453 4750 
Q 2034 4750 2367 4411 
Q 2700 4072 2700 3481 
Q 2700 2891 2367 2550 
Q 2034 2209 1453 2209 
Q 872 2209 539 2550 
Q 206 2891 206 3481 
Q 206 4072 539 4411 
Q 872 4750 1453 4750 
z
M 1453 4225 
Q 1228 4225 1106 4031 
Q 984 3838 984 3481 
Q 984 3122 1106 2926 
Q 1228 2731 1453 2731 
Q 1678 2731 1798 2926 
Q 1919 3122 1919 3481 
Q 1919 3838 1797 4031 
Q 1675 4225 1453 4225 
z
" transform="scale(0.015625)"/>
     </defs>
     <use xlink:href="#DejaVuSans-Bold-55"/>
     <use xlink:href="#DejaVuSans-Bold-74" transform="translate(81.201172 0)"/>
     <use xlink:href="#DejaVuSans-Bold-69" transform="translate(129.003906 0)"/>
     <use xlink:href="#DejaVuSans-Bold-6c" transform="translate(163.28125 0)"/>
     <use xlink:href="#DejaVuSans-Bold-69" transform="translate(197.558594 0)"/>
     <use xlink:href="#DejaVuSans-Bold-64" transform="translate(231.835938 0)"/>
     <use xlink:href="#DejaVuSans-Bold-61" transform="translate(303.417969 0)"/>
     <use xlink:href="#DejaVuSans-Bold-64" transform="translate(370.898438 0)"/>
     <use xlink:href="#DejaVuSans-Bold-20" transform="translate(442.480469 0)"/>
     <use xlink:href="#DejaVuSans-Bold-4f" transform="translate(477.294922 0)"/>
     <use xlink:href="#DejaVuSans-Bold-70" transform="translate(562.304688 0)"/>
     <use xlink:href="#DejaVuSans-Bold-65" transform="translate(633.886719 0)"/>
     <use xlink:href="#DejaVuSans-Bold-72" transform="translate(701.708984 0)"/>
     <use xlink:href="#DejaVuSans-Bold-61" transform="translate(751.025391 0)"/>
     <use xlink:href="#DejaVuSans-Bold-63" transform="translate(818.505859 0)"/>
     <use xlink:href="#DejaVuSans-Bold-69" transform="translate(877.783203 0)"/>
     <use xlink:href="#DejaVuSans-Bold-6f" transform="translate(912.060547 0)"/>
     <use xlink:href="#DejaVuSans-Bold-6e" transform="translate(980.761719 0)"/>
     <use xlink:href="#DejaVuSans-Bold-61" transform="translate(1051.953125 0)"/>
     <use xlink:href="#DejaVuSans-Bold-6c" transform="translate(1119.433594 0)"/>
     <use xlink:href="#DejaVuSans-Bold-20" transform="translate(1153.710938 0)"/>
     <use xlink:href="#DejaVuSans-Bold-25" transform="translate(1188.525391 0)"/>
    </g>
   </g>
   <g id="text_30">
    <!-- Rotación de Activos -->
    <g style="fill: #808080" transform="translate(249.587775 14.038594) scale(0.09 -0.09)">
     <defs>
      <path id="DejaVuSans-Bold-52" d="M 2297 2597 
Q 2675 2597 2839 2737 
Q 3003 2878 3003 3200 
Q 3003 3519 2839 3656 
Q 2675 3794 2297 3794 
L 1791 3794 
L 1791 2597 
L 2297 2597 
z
M 1791 1766 
L 1791 0 
L 588 0 
L 588 4666 
L 2425 4666 
Q 3347 4666 3776 4356 
Q 4206 4047 4206 3378 
Q 4206 2916 3982 2619 
Q 3759 2322 3309 2181 
Q 3556 2125 3751 1926 
Q 3947 1728 4147 1325 
L 4800 0 
L 3519 0 
L 2950 1159 
Q 2778 1509 2601 1637 
Q 2425 1766 2131 1766 
L 1791 1766 
z
" transform="scale(0.015625)"/>
      <path id="DejaVuSans-Bold-f3" d="M 2203 2784 
Q 1831 2784 1636 2517 
Q 1441 2250 1441 1747 
Q 1441 1244 1636 976 
Q 1831 709 2203 709 
Q 2569 709 2762 976 
Q 2956 1244 2956 1747 
Q 2956 2250 2762 2517 
Q 2569 2784 2203 2784 
z
M 2203 3584 
Q 3106 3584 3614 3096 
Q 4122 2609 4122 1747 
Q 4122 884 3614 396 
Q 3106 -91 2203 -91 
Q 1297 -91 786 396 
Q 275 884 275 1747 
Q 275 2609 786 3096 
Q 1297 3584 2203 3584 
z
M 2694 5119 
L 3578 5119 
L 2425 3944 
L 1813 3944 
L 2694 5119 
z
" transform="scale(0.015625)"/>
     </defs>
     <use xlink:href="#DejaVuSans-Bold-52"/>
     <use xlink:href="#DejaVuSans-Bold-6f" transform="translate(77.001953 0)"/>
     <use xlink:href="#DejaVuSans-Bold-74" transform="translate(145.703125 0)"/>
     <use xlink:href="#DejaVuSans-Bold-61" transform="translate(193.505859 0)"/>
     <use xlink:href="#DejaVuSans-Bold-63" transform="translate(260.986328 0)"/>
     <use xlink:href="#DejaVuSans-Bold-69" transform="translate(320.263672 0)"/>
     <use xlink:href="#DejaVuSans-Bold-f3" transform="translate(354.541016 0)"/>
     <use xlink:href="#DejaVuSans-Bold-6e" transform="translate(423.242188 0)"/>
     <use xlink:href="#DejaVuSans-Bold-20" transform="translate(494.433594 0)"/>
     <use xlink:href="#DejaVuSans-Bold-64" transform="translate(529.248047 0)"/>
     <use xlink:href="#DejaVuSans-Bold-65" transform="translate(600.830078 0)"/>
     <use xlink:href="#DejaVuSans-Bold-20" transform="translate(668.652344 0)"/>
     <use xlink:href="#DejaVuSans-Bold-41" transform="translate(703.466797 0)"/>
     <use xlink:href="#DejaVuSans-Bold-63" transform="translate(780.859375 0)"/>
     <use xlink:href="#DejaVuSans-Bold-74" transform="translate(840.136719 0)"/>
     <use xlink:href="#DejaVuSans-Bold-69" transform="translate(887.939453 0)"/>
     <use xlink:href="#DejaVuSans-Bold-76" transform="translate(922.216797 0)"/>
     <use xlink:href="#DejaVuSans-Bold-6f" transform="translate(987.402344 0)"/>
     <use xlink:href="#DejaVuSans-Bold-73" transform="translate(1056.103516 0)"/>
    </g>
   </g>
   <g id="text_31">
    <!-- Retorno sobre Capital % -->
    <g style="fill: #808080" transform="translate(433.273219 14.038594) scale(0.09 -0.09)">
     <use xlink:href="#DejaVuSans-Bold-52"/>
     <use xlink:href="#DejaVuSans-Bold-65" transform="translate(77.001953 0)"/>
     <use xlink:href="#DejaVuSans-Bold-74" transform="translate(144.824219 0)"/>
     <use xlink:href="#DejaVuSans-Bold-6f" transform="translate(192.626953 0)"/>
     <use xlink:href="#DejaVuSans-Bold-72" transform="translate(261.328125 0)"/>
     <use xlink:href="#DejaVuSans-Bold-6e" transform="translate(310.644531 0)"/>
     <use xlink:href="#DejaVuSans-Bold-6f" transform="translate(381.835938 0)"/>
     <use xlink:href="#DejaVuSans-Bold-20" transform="translate(450.537109 0)"/>
     <use xlink:href="#DejaVuSans-Bold-73" transform="translate(485.351562 0)"/>
     <use xlink:href="#DejaVuSans-Bold-6f" transform="translate(544.873047 0)"/>
     <use xlink:href="#DejaVuSans-Bold-62" transform="translate(613.574219 0)"/>
     <use xlink:href="#DejaVuSans-Bold-72" transform="translate(685.15625 0)"/>
     <use xlink:href="#DejaVuSans-Bold-65" transform="translate(734.472656 0)"/>
     <use xlink:href="#DejaVuSans-Bold-20" transform="translate(802.294922 0)"/>
     <use xlink:href="#DejaVuSans-Bold-43" transform="translate(837.109375 0)"/>
     <use xlink:href="#DejaVuSans-Bold-61" transform="translate(910.498047 0)"/>
     <use xlink:href="#DejaVuSans-Bold-70" transform="translate(977.978516 0)"/>
     <use xlink:href="#DejaVuSans-Bold-69" transform="translate(1049.560547 0)"/>
     <use xlink:href="#DejaVuSans-Bold-74" transform="translate(1083.837891 0)"/>
     <use xlink:href="#DejaVuSans-Bold-61" transform="translate(1131.640625 0)"/>
     <use xlink:href="#DejaVuSans-Bold-6c" transform="translate(1199.121094 0)"/>
     <use xlink:href="#DejaVuSans-Bold-20" transform="translate(1233.398438 0)"/>
     <use xlink:href="#DejaVuSans-Bold-25" transform="translate(1268.212891 0)"/>
    </g>
   </g>
   <g id="text_32">
    <!-- 16.89% -->
    <g style="fill: #808080" transform="translate(596.6955 119.680031) scale(0.18 -0.18)">
     <defs>
      <path id="DejaVuSans-Bold-36" d="M 2316 2303 
Q 2000 2303 1842 2098 
Q 1684 1894 1684 1484 
Q 1684 1075 1842 870 
Q 2000 666 2316 666 
Q 2634 666 2792 870 
Q 2950 1075 2950 1484 
Q 2950 1894 2792 2098 
Q 2634 2303 2316 2303 
z
M 3803 4544 
L 3803 3681 
Q 3506 3822 3243 3889 
Q 2981 3956 2731 3956 
Q 2194 3956 1894 3657 
Q 1594 3359 1544 2772 
Q 1750 2925 1990 3001 
Q 2231 3078 2516 3078 
Q 3231 3078 3670 2659 
Q 4109 2241 4109 1563 
Q 4109 813 3618 361 
Q 3128 -91 2303 -91 
Q 1394 -91 895 523 
Q 397 1138 397 2266 
Q 397 3422 980 4083 
Q 1563 4744 2578 4744 
Q 2900 4744 3203 4694 
Q 3506 4644 3803 4544 
z
" transform="scale(0.015625)"/>
      <path id="DejaVuSans-Bold-38" d="M 2228 2088 
Q 1891 2088 1709 1903 
Q 1528 1719 1528 1375 
Q 1528 1031 1709 848 
Q 1891 666 2228 666 
Q 2563 666 2741 848 
Q 2919 1031 2919 1375 
Q 2919 1722 2741 1905 
Q 2563 2088 2228 2088 
z
M 1350 2484 
Q 925 2613 709 2878 
Q 494 3144 494 3541 
Q 494 4131 934 4440 
Q 1375 4750 2228 4750 
Q 3075 4750 3515 4442 
Q 3956 4134 3956 3541 
Q 3956 3144 3739 2878 
Q 3522 2613 3097 2484 
Q 3572 2353 3814 2058 
Q 4056 1763 4056 1313 
Q 4056 619 3595 264 
Q 3134 -91 2228 -91 
Q 1319 -91 855 264 
Q 391 619 391 1313 
Q 391 1763 633 2058 
Q 875 2353 1350 2484 
z
M 1631 3419 
Q 1631 3141 1786 2991 
Q 1941 2841 2228 2841 
Q 2509 2841 2662 2991 
Q 2816 3141 2816 3419 
Q 2816 3697 2662 3845 
Q 2509 3994 2228 3994 
Q 1941 3994 1786 3844 
Q 1631 3694 1631 3419 
z
" transform="scale(0.015625)"/>
      <path id="DejaVuSans-Bold-39" d="M 641 103 
L 641 966 
Q 928 831 1190 764 
Q 1453 697 1709 697 
Q 2247 697 2547 995 
Q 2847 1294 2900 1881 
Q 2688 1725 2447 1647 
Q 2206 1569 1925 1569 
Q 1209 1569 770 1986 
Q 331 2403 331 3084 
Q 331 3838 820 4291 
Q 1309 4744 2131 4744 
Q 3044 4744 3544 4128 
Q 4044 3513 4044 2388 
Q 4044 1231 3459 570 
Q 2875 -91 1856 -91 
Q 1528 -91 1228 -42 
Q 928 6 641 103 
z
M 2125 2350 
Q 2441 2350 2600 2554 
Q 2759 2759 2759 3169 
Q 2759 3575 2600 3781 
Q 2441 3988 2125 3988 
Q 1809 3988 1650 3781 
Q 1491 3575 1491 3169 
Q 1491 2759 1650 2554 
Q 1809 2350 2125 2350 
z
" transform="scale(0.015625)"/>
     </defs>
     <use xlink:href="#DejaVuSans-Bold-31"/>
     <use xlink:href="#DejaVuSans-Bold-36" transform="translate(69.580078 0)"/>
     <use xlink:href="#DejaVuSans-Bold-2e" transform="translate(139.160156 0)"/>
     <use xlink:href="#DejaVuSans-Bold-38" transform="translate(177.148438 0)"/>
     <use xlink:href="#DejaVuSans-Bold-39" transform="translate(246.728516 0)"/>
     <use xlink:href="#DejaVuSans-Bold-25" transform="translate(316.308594 0)"/>
    </g>
   </g>
   <g id="text_33">
    <!-- Retorno / Capital -->
    <g style="fill: #808080" transform="translate(583.857375 137.585681) scale(0.12 -0.12)">
     <defs>
      <path id="DejaVuSans-52" d="M 2841 2188 
Q 3044 2119 3236 1894 
Q 3428 1669 3622 1275 
L 4263 0 
L 3584 0 
L 2988 1197 
Q 2756 1666 2539 1819 
Q 2322 1972 1947 1972 
L 1259 1972 
L 1259 0 
L 628 0 
L 628 4666 
L 2053 4666 
Q 2853 4666 3247 4331 
Q 3641 3997 3641 3322 
Q 3641 2881 3436 2590 
Q 3231 2300 2841 2188 
z
M 1259 4147 
L 1259 2491 
L 2053 2491 
Q 2509 2491 2742 2702 
Q 2975 2913 2975 3322 
Q 2975 3731 2742 3939 
Q 2509 4147 2053 4147 
L 1259 4147 
z
" transform="scale(0.015625)"/>
      <path id="DejaVuSans-65" d="M 3597 1894 
L 3597 1613 
L 953 1613 
Q 991 1019 1311 708 
Q 1631 397 2203 397 
Q 2534 397 2845 478 
Q 3156 559 3463 722 
L 3463 178 
Q 3153 47 2828 -22 
Q 2503 -91 2169 -91 
Q 1331 -91 842 396 
Q 353 884 353 1716 
Q 353 2575 817 3079 
Q 1281 3584 2069 3584 
Q 2775 3584 3186 3129 
Q 3597 2675 3597 1894 
z
M 3022 2063 
Q 3016 2534 2758 2815 
Q 2500 3097 2075 3097 
Q 1594 3097 1305 2825 
Q 1016 2553 972 2059 
L 3022 2063 
z
" transform="scale(0.015625)"/>
      <path id="DejaVuSans-74" d="M 1172 4494 
L 1172 3500 
L 2356 3500 
L 2356 3053 
L 1172 3053 
L 1172 1153 
Q 1172 725 1289 603 
Q 1406 481 1766 481 
L 2356 481 
L 2356 0 
L 1766 0 
Q 1100 0 847 248 
Q 594 497 594 1153 
L 594 3053 
L 172 3053 
L 172 3500 
L 594 3500 
L 594 4494 
L 1172 4494 
z
" transform="scale(0.015625)"/>
      <path id="DejaVuSans-6f" d="M 1959 3097 
Q 1497 3097 1228 2736 
Q 959 2375 959 1747 
Q 959 1119 1226 758 
Q 1494 397 1959 397 
Q 2419 397 2687 759 
Q 2956 1122 2956 1747 
Q 2956 2369 2687 2733 
Q 2419 3097 1959 3097 
z
M 1959 3584 
Q 2709 3584 3137 3096 
Q 3566 2609 3566 1747 
Q 3566 888 3137 398 
Q 2709 -91 1959 -91 
Q 1206 -91 779 398 
Q 353 888 353 1747 
Q 353 2609 779 3096 
Q 1206 3584 1959 3584 
z
" transform="scale(0.015625)"/>
      <path id="DejaVuSans-72" d="M 2631 2963 
Q 2534 3019 2420 3045 
Q 2306 3072 2169 3072 
Q 1681 3072 1420 2755 
Q 1159 2438 1159 1844 
L 1159 0 
L 581 0 
L 581 3500 
L 1159 3500 
L 1159 2956 
Q 1341 3275 1631 3429 
Q 1922 3584 2338 3584 
Q 2397 3584 2469 3576 
Q 2541 3569 2628 3553 
L 2631 2963 
z
" transform="scale(0.015625)"/>
      <path id="DejaVuSans-6e" d="M 3513 2113 
L 3513 0 
L 2938 0 
L 2938 2094 
Q 2938 2591 2744 2837 
Q 2550 3084 2163 3084 
Q 1697 3084 1428 2787 
Q 1159 2491 1159 1978 
L 1159 0 
L 581 0 
L 581 3500 
L 1159 3500 
L 1159 2956 
Q 1366 3272 1645 3428 
Q 1925 3584 2291 3584 
Q 2894 3584 3203 3211 
Q 3513 2838 3513 2113 
z
" transform="scale(0.015625)"/>
      <path id="DejaVuSans-20" transform="scale(0.015625)"/>
      <path id="DejaVuSans-2f" d="M 1625 4666 
L 2156 4666 
L 531 -594 
L 0 -594 
L 1625 4666 
z
" transform="scale(0.015625)"/>
      <path id="DejaVuSans-43" d="M 4122 4306 
L 4122 3641 
Q 3803 3938 3442 4084 
Q 3081 4231 2675 4231 
Q 1875 4231 1450 3742 
Q 1025 3253 1025 2328 
Q 1025 1406 1450 917 
Q 1875 428 2675 428 
Q 3081 428 3442 575 
Q 3803 722 4122 1019 
L 4122 359 
Q 3791 134 3420 21 
Q 3050 -91 2638 -91 
Q 1578 -91 968 557 
Q 359 1206 359 2328 
Q 359 3453 968 4101 
Q 1578 4750 2638 4750 
Q 3056 4750 3426 4639 
Q 3797 4528 4122 4306 
z
" transform="scale(0.015625)"/>
      <path id="DejaVuSans-61" d="M 2194 1759 
Q 1497 1759 1228 1600 
Q 959 1441 959 1056 
Q 959 750 1161 570 
Q 1363 391 1709 391 
Q 2188 391 2477 730 
Q 2766 1069 2766 1631 
L 2766 1759 
L 2194 1759 
z
M 3341 1997 
L 3341 0 
L 2766 0 
L 2766 531 
Q 2569 213 2275 61 
Q 1981 -91 1556 -91 
Q 1019 -91 701 211 
Q 384 513 384 1019 
Q 384 1609 779 1909 
Q 1175 2209 1959 2209 
L 2766 2209 
L 2766 2266 
Q 2766 2663 2505 2880 
Q 2244 3097 1772 3097 
Q 1472 3097 1187 3025 
Q 903 2953 641 2809 
L 641 3341 
Q 956 3463 1253 3523 
Q 1550 3584 1831 3584 
Q 2591 3584 2966 3190 
Q 3341 2797 3341 1997 
z
" transform="scale(0.015625)"/>
      <path id="DejaVuSans-70" d="M 1159 525 
L 1159 -1331 
L 581 -1331 
L 581 3500 
L 1159 3500 
L 1159 2969 
Q 1341 3281 1617 3432 
Q 1894 3584 2278 3584 
Q 2916 3584 3314 3078 
Q 3713 2572 3713 1747 
Q 3713 922 3314 415 
Q 2916 -91 2278 -91 
Q 1894 -91 1617 61 
Q 1341 213 1159 525 
z
M 3116 1747 
Q 3116 2381 2855 2742 
Q 2594 3103 2138 3103 
Q 1681 3103 1420 2742 
Q 1159 2381 1159 1747 
Q 1159 1113 1420 752 
Q 1681 391 2138 391 
Q 2594 391 2855 752 
Q 3116 1113 3116 1747 
z
" transform="scale(0.015625)"/>
      <path id="DejaVuSans-69" d="M 603 3500 
L 1178 3500 
L 1178 0 
L 603 0 
L 603 3500 
z
M 603 4863 
L 1178 4863 
L 1178 4134 
L 603 4134 
L 603 4863 
z
" transform="scale(0.015625)"/>
      <path id="DejaVuSans-6c" d="M 603 4863 
L 1178 4863 
L 1178 0 
L 603 0 
L 603 4863 
z
" transform="scale(0.015625)"/>
     </defs>
     <use xlink:href="#DejaVuSans-52"/>
     <use xlink:href="#DejaVuSans-65" transform="translate(64.982422 0)"/>
     <use xlink:href="#DejaVuSans-74" transform="translate(126.505859 0)"/>
     <use xlink:href="#DejaVuSans-6f" transform="translate(165.714844 0)"/>
     <use xlink:href="#DejaVuSans-72" transform="translate(226.896484 0)"/>
     <use xlink:href="#DejaVuSans-6e" transform="translate(266.259766 0)"/>
     <use xlink:href="#DejaVuSans-6f" transform="translate(329.638672 0)"/>
     <use xlink:href="#DejaVuSans-20" transform="translate(390.820312 0)"/>
     <use xlink:href="#DejaVuSans-2f" transform="translate(422.607422 0)"/>
     <use xlink:href="#DejaVuSans-20" transform="translate(456.298828 0)"/>
     <use xlink:href="#DejaVuSans-43" transform="translate(488.085938 0)"/>
     <use xlink:href="#DejaVuSans-61" transform="translate(557.910156 0)"/>
     <use xlink:href="#DejaVuSans-70" transform="translate(619.189453 0)"/>
     <use xlink:href="#DejaVuSans-69" transform="translate(682.666016 0)"/>
     <use xlink:href="#DejaVuSans-74" transform="translate(710.449219 0)"/>
     <use xlink:href="#DejaVuSans-61" transform="translate(749.658203 0)"/>
     <use xlink:href="#DejaVuSans-6c" transform="translate(810.9375 0)"/>
    </g>
   </g>
  </g>
 </g>
 <defs>
  <clipPath id="p828faea64a">
   <rect x="7.2" y="32.186756" width="696.645" height="206.316"/>
  </clipPath>
 </defs>
</svg>
